<?xml version="1.0" encoding="utf-8"?>
<!-- Generator: Adobe Illustrator 26.4.1, SVG Export Plug-In . SVG Version: 6.00 Build 0)  -->
<svg version="1.1" id="Layer_1" xmlns="http://www.w3.org/2000/svg" xmlns:xlink="http://www.w3.org/1999/xlink" x="0px" y="0px"
	 viewBox="0 0 400 400" style="enable-background:new 0 0 400 400;" xml:space="preserve">
<style type="text/css">
	.st0{fill:none;stroke:#000000;stroke-width:3;stroke-miterlimit:10;}
</style>
<g>
	<g>
		<polygon class="st0" points="223.6,242.1 223.6,252.5 205.4,252.5 205.4,302.4 194,302.4 194,252.5 175.7,252.5 175.7,242.1 		"/>
		<rect x="194" y="171.1" class="st0" width="11.4" height="60.3"/>
		<polygon class="st0" points="186.4,100.1 199.2,148.5 200.2,148.5 213,100.1 232.6,100.1 232.6,160.4 221.6,160.4 208,160.4 
			191.3,160.4 177.8,160.4 166.8,160.4 166.8,100.1 		"/>
	</g>
	<path class="st0" d="M194,302.4l-77.6-71 M223.6,242.1l-80.3-70.6 M175.7,242.1l-59.3-71 M194,231.4l-80.7-71 M205.4,231.4
		l-40.3-71 M205.4,171.1l-57.1-71 M166.8,160.4l-60.5-71 M166.8,100.1l-60.5-71 M232.6,100.1l-60.5-71"/>
	<g>
		<path class="st0" d="M137.1,171.1c16.2,0,24.8,8,24.8,24.5V207c0,16.5-8.6,24.5-24.8,24.5h-20.7v-60.3L137.1,171.1L137.1,171.1z"
			/>
		<polygon class="st0" points="148.3,100.1 165,160.4 153.3,160.4 125,160.4 113.3,160.4 130,100.1 		"/>
		<polygon class="st0" points="125.9,29.1 138.7,77.5 139.7,77.5 152.4,29.1 172.1,29.1 172.1,89.4 161.1,89.4 147.5,89.4 
			130.8,89.4 117.3,89.4 106.3,89.4 106.3,29.1 		"/>
	</g>
</g>
</svg>
