<?xml version="1.0" encoding="utf-8"?>
<!-- Generator: Adobe Illustrator 26.4.1, SVG Export Plug-In . SVG Version: 6.00 Build 0)  -->
<svg version="1.1" id="Layer_1" xmlns="http://www.w3.org/2000/svg" xmlns:xlink="http://www.w3.org/1999/xlink" x="0px" y="0px"
	 viewBox="0 0 400 400" style="enable-background:new 0 0 400 400;" xml:space="preserve">
<style type="text/css">
	.st0{fill:none;stroke:#000000;stroke-width:3;stroke-miterlimit:10;}
</style>
<g>
	<g>
		<polygon class="st0" points="224,242.1 224,252.5 205.7,252.5 205.7,302.4 194.3,302.4 194.3,252.5 176,252.5 176,242.1 		"/>
		<rect x="194.3" y="171.1" class="st0" width="11.4" height="60.3"/>
		<polygon class="st0" points="186.7,100.1 199.5,148.5 200.5,148.5 213.3,100.1 232.9,100.1 232.9,160.4 221.9,160.4 208.4,160.4 
			191.6,160.4 178.1,160.4 167.1,160.4 167.1,100.1 		"/>
	</g>
	<path class="st0" d="M194.3,302.4l-14.6,89 M224,242.1l-17.3,89.4 M176,242.1l3.7,89 M194.3,231.4l-17.7,89 M205.7,231.4l22.7,89
		 M205.7,171.1l5.9,89 M167.1,160.4l2.5,89 M167.1,100.1l2.5,89 M232.9,100.1l2.5,89"/>
	<g>
		<path class="st0" d="M200.4,331.1c16.2,0,24.8,8,24.8,24.5v11.4c0,16.5-8.6,24.5-24.8,24.5h-20.7v-60.3H200.4z"/>
		<polygon class="st0" points="211.6,260 228.3,320.4 216.6,320.4 188.4,320.4 176.6,320.4 193.4,260 		"/>
		<polygon class="st0" points="189.2,189.1 202,237.5 203,237.5 215.8,189.1 235.4,189.1 235.4,249.4 224.4,249.4 210.8,249.4 
			194.1,249.4 180.6,249.4 169.6,249.4 169.6,189.1 		"/>
	</g>
</g>
</svg>
