<?xml version="1.0" encoding="utf-8"?>
<!-- Generator: Adobe Illustrator 26.4.1, SVG Export Plug-In . SVG Version: 6.00 Build 0)  -->
<svg version="1.1" id="Layer_1" xmlns="http://www.w3.org/2000/svg" xmlns:xlink="http://www.w3.org/1999/xlink" x="0px" y="0px"
	 viewBox="0 0 400 400" style="enable-background:new 0 0 400 400;" xml:space="preserve">
<style type="text/css">
	.st0{fill:none;stroke:#000000;stroke-width:3;stroke-miterlimit:10;}
</style>
<g>
	<g>
		<polygon class="st0" points="223.8,242.1 223.8,252.5 205.6,252.5 205.6,302.4 194.2,302.4 194.2,252.5 175.9,252.5 175.9,242.1 
					"/>
		<rect x="194.2" y="171.1" class="st0" width="11.4" height="60.3"/>
		<polygon class="st0" points="186.6,100.1 199.4,148.5 200.4,148.5 213.1,100.1 232.8,100.1 232.8,160.4 221.8,160.4 208.2,160.4 
			191.5,160.4 178,160.4 167,160.4 167,100.1 		"/>
	</g>
	<path class="st0" d="M194.2,302.4l-124.6,89 M223.8,242.1L96.6,331.5 M175.9,242.1l-106.3,89 M194.2,231.4l-127.7,89 M205.6,231.4
		l-87.3,89 M205.6,171.1l-104.1,89 M167,160.4l-107.5,89 M167,100.1l-107.5,89 M232.8,100.1l-107.5,89"/>
	<g>
		<path class="st0" d="M90.3,331.1c16.2,0,24.8,8,24.8,24.5V367c0,16.5-8.6,24.5-24.8,24.5H69.6v-60.3h20.7V331.1z"/>
		<polygon class="st0" points="101.5,260.1 118.2,320.4 106.5,320.4 78.2,320.4 66.5,320.4 83.2,260.1 		"/>
		<polygon class="st0" points="79.1,189.1 91.8,237.5 92.9,237.5 105.6,189.1 125.3,189.1 125.3,249.4 114.2,249.4 100.7,249.4 
			84,249.4 70.5,249.4 59.4,249.4 59.4,189.1 		"/>
	</g>
</g>
</svg>
