<?xml version="1.0" encoding="utf-8"?>
<!-- Generator: Adobe Illustrator 26.4.1, SVG Export Plug-In . SVG Version: 6.00 Build 0)  -->
<svg version="1.1" id="Layer_1" xmlns="http://www.w3.org/2000/svg" xmlns:xlink="http://www.w3.org/1999/xlink" x="0px" y="0px"
	 viewBox="0 0 400 400" style="enable-background:new 0 0 400 400;" xml:space="preserve">
<style type="text/css">
	.st0{fill:none;stroke:#000000;stroke-width:3;stroke-miterlimit:10;}
</style>
<g>
	<g>
		<polygon class="st0" points="223.7,242.1 223.7,252.5 205.4,252.5 205.4,302.5 194.1,302.5 194.1,252.5 175.8,252.5 175.8,242.1 
					"/>
		<rect x="194.1" y="171.1" class="st0" width="11.4" height="60.3"/>
		<polygon class="st0" points="186.5,100.1 199.2,148.5 200.3,148.5 213,100.1 232.7,100.1 232.7,160.4 221.6,160.4 208.1,160.4 
			191.4,160.4 177.9,160.4 166.8,160.4 166.8,100.1 		"/>
	</g>
	<path class="st0" d="M194.1,302.5l45.4,89 M223.7,242.1l42.7,89.4 M175.8,242.1l63.7,89 M194.1,231.4l42.3,89 M205.4,231.4l82.7,89
		 M205.4,171.1l65.9,89 M166.8,160.4l62.5,89 M166.8,100.1l62.5,89 M232.7,100.1l62.5,89"/>
	<g>
		<path class="st0" d="M260.2,331.1c16.2,0,24.8,8,24.8,24.5V367c0,16.5-8.6,24.5-24.8,24.5h-20.7v-60.3H260.2z"/>
		<polygon class="st0" points="271.4,260.1 288.1,320.4 276.4,320.4 248.1,320.4 236.4,320.4 253.1,260.1 		"/>
		<polygon class="st0" points="249,189.1 261.7,237.5 262.8,237.5 275.5,189.1 295.2,189.1 295.2,249.4 284.1,249.4 270.6,249.4 
			253.9,249.4 240.4,249.4 229.3,249.4 229.3,189.1 		"/>
	</g>
</g>
</svg>
