<?xml version="1.0" encoding="utf-8"?>
<!-- Generator: Adobe Illustrator 26.4.1, SVG Export Plug-In . SVG Version: 6.00 Build 0)  -->
<svg version="1.1" id="Layer_1" xmlns="http://www.w3.org/2000/svg" xmlns:xlink="http://www.w3.org/1999/xlink" x="0px" y="0px"
	 viewBox="0 0 400 400" style="enable-background:new 0 0 400 400;" xml:space="preserve">
<style type="text/css">
	.st0{fill:none;stroke:#000000;stroke-width:3;stroke-miterlimit:10;}
</style>
<g>
	<g>
		<polygon class="st0" points="223.9,241.6 223.9,251.9 205.6,251.9 205.6,301.9 194.2,301.9 194.2,251.9 176,251.9 176,241.6 		"/>
		<rect x="194.2" y="170.6" class="st0" width="11.4" height="60.3"/>
		<polygon class="st0" points="186.7,99.6 199.4,148 200.4,148 213.2,99.6 232.8,99.6 232.8,159.9 221.8,159.9 208.3,159.9 
			191.6,159.9 178,159.9 167,159.9 167,99.6 		"/>
	</g>
	<path class="st0" d="M194.2,301.9l55.4,1 M223.9,241.6l42.7,1.4 M176,241.6l63.7,1 M194.2,230.9l42.3,1 M205.6,230.9l82.7,1
		 M205.6,170.6l65.9,1 M167,159.9l72.5,1 M167,99.6l62.5,1 M232.8,99.6l62.5,1"/>
	<g>
		<path class="st0" d="M270.3,242.6c16.2,0,24.8,8,24.8,24.5v11.4c0,16.5-8.6,24.5-24.8,24.5h-20.7v-60.3H270.3z"/>
		<polygon class="st0" points="281.5,171.5 298.3,231.9 286.5,231.9 258.3,231.9 246.6,231.9 263.3,171.5 		"/>
		<polygon class="st0" points="259.1,100.6 271.9,149 272.9,149 285.7,100.6 305.3,100.6 305.3,160.9 294.3,160.9 280.8,160.9 
			264.1,160.9 250.5,160.9 239.5,160.9 239.5,100.6 		"/>
	</g>
</g>
</svg>
