<?xml version="1.0" encoding="utf-8"?>
<!-- Generator: Adobe Illustrator 26.4.1, SVG Export Plug-In . SVG Version: 6.00 Build 0)  -->
<svg version="1.1" id="Layer_1" xmlns="http://www.w3.org/2000/svg" xmlns:xlink="http://www.w3.org/1999/xlink" x="0px" y="0px"
	 viewBox="0 0 400 400" style="enable-background:new 0 0 400 400;" xml:space="preserve">
<style type="text/css">
	.st0{fill:none;stroke:#000000;stroke-width:3;stroke-miterlimit:10;}
</style>
<g>
	<g>
		<polygon class="st0" points="223.7,243.1 223.7,253.4 205.4,253.4 205.4,303.4 194.1,303.4 194.1,253.4 175.8,253.4 175.8,243.1 
					"/>
		<rect x="194.1" y="172.1" class="st0" width="11.4" height="60.3"/>
		<polygon class="st0" points="186.5,101.1 199.2,149.5 200.3,149.5 213,101.1 232.7,101.1 232.7,161.4 221.6,161.4 208.1,161.4 
			191.4,161.4 177.9,161.4 166.8,161.4 166.8,101.1 		"/>
	</g>
	<path class="st0" d="M194.1,303.4l95.4-71 M223.7,243.1l92.7-70.6 M175.8,243.1l113.7-71 M194.1,232.4l92.3-71 M205.4,232.4
		l132.7-71 M205.4,172.1l115.9-71 M166.8,161.4l112.5-71 M166.8,101.1l112.5-71 M232.7,101.1l112.5-71"/>
	<g>
		<path class="st0" d="M310.2,172.1c16.2,0,24.8,8,24.8,24.5v11.4c0,16.5-8.6,24.5-24.8,24.5h-20.7v-60.3H310.2z"/>
		<polygon class="st0" points="321.4,101 338.1,161.4 326.4,161.4 298.1,161.4 286.4,161.4 303.1,101 		"/>
		<polygon class="st0" points="299,30.1 311.7,78.5 312.8,78.5 325.5,30.1 345.2,30.1 345.2,90.4 334.1,90.4 320.6,90.4 303.9,90.4 
			290.4,90.4 279.3,90.4 279.3,30.1 		"/>
	</g>
</g>
</svg>
