<?xml version="1.0" encoding="utf-8"?>
<!-- Generator: Adobe Illustrator 26.4.1, SVG Export Plug-In . SVG Version: 6.00 Build 0)  -->
<svg version="1.1" id="Layer_1" xmlns="http://www.w3.org/2000/svg" xmlns:xlink="http://www.w3.org/1999/xlink" x="0px" y="0px"
	 viewBox="0 0 400 400" style="enable-background:new 0 0 400 400;" xml:space="preserve">
<style type="text/css">
	.st0{fill:none;stroke:#000000;stroke-width:3;stroke-miterlimit:10;}
</style>
<g>
	<g>
		<polygon class="st0" points="223.7,242.1 223.7,252.5 205.4,252.5 205.4,302.5 194.1,302.5 194.1,252.5 175.8,252.5 175.8,242.1 
					"/>
		<rect x="194.1" y="171.1" class="st0" width="11.4" height="60.3"/>
		<polygon class="st0" points="186.5,100.1 199.2,148.5 200.3,148.5 213,100.1 232.7,100.1 232.7,160.4 221.6,160.4 208.1,160.4 
			191.4,160.4 177.9,160.4 166.8,160.4 166.8,100.1 		"/>
	</g>
	<path class="st0" d="M194.1,302.5 M223.7,242.1 M175.8,242.1 M194.1,231.4 M205.4,231.4 M205.4,171.1 M166.8,160.4 M166.8,100.1
		 M232.7,100.1"/>
	<g>
		<path class="st0" d="M198.2,243.1c16.2,0,24.8,8,24.8,24.5V279c0,16.5-8.6,24.5-24.8,24.5h-20.7v-60.3H198.2z"/>
		<polygon class="st0" points="209.4,172.1 226.1,232.4 214.4,232.4 186.1,232.4 174.4,232.4 191.1,172.1 		"/>
		<polygon class="st0" points="187,101.1 199.7,149.5 200.8,149.5 213.5,101.1 233.2,101.1 233.2,161.4 222.1,161.4 208.6,161.4 
			191.9,161.4 178.4,161.4 167.3,161.4 167.3,101.1 		"/>
	</g>
</g>
</svg>
