<?xml version="1.0" encoding="utf-8"?>
<!-- Generator: Adobe Illustrator 26.4.1, SVG Export Plug-In . SVG Version: 6.00 Build 0)  -->
<svg version="1.1" id="Layer_1" xmlns="http://www.w3.org/2000/svg" xmlns:xlink="http://www.w3.org/1999/xlink" x="0px" y="0px"
	 viewBox="0 0 400 400" style="enable-background:new 0 0 400 400;" xml:space="preserve">
<style type="text/css">
	.st0{fill:none;stroke:#000000;stroke-width:3;stroke-miterlimit:10;}
</style>
<g>
	<g>
		<polygon class="st0" points="223.8,242.1 223.8,252.5 205.5,252.5 205.5,302.4 194.2,302.4 194.2,252.5 175.9,252.5 175.9,242.1 
					"/>
		<rect x="194.2" y="171.1" class="st0" width="11.4" height="60.3"/>
		<polygon class="st0" points="186.6,100.1 199.3,148.5 200.4,148.5 213.1,100.1 232.8,100.1 232.8,160.4 221.7,160.4 208.2,160.4 
			191.5,160.4 178,160.4 166.9,160.4 166.9,100.1 		"/>
	</g>
	<path class="st0" d="M194.2,302.4l-74.6,89 M223.8,242.1l-77.3,89.4 M175.9,242.1l-56.3,89 M194.2,231.4l-77.7,89 M205.5,231.4
		l-37.3,89 M205.5,171.1l-54.1,89 M166.9,160.4l-57.5,89 M166.9,100.1l-57.5,89 M232.8,100.1l-57.5,89"/>
	<g>
		<path class="st0" d="M140.3,331.1c16.2,0,24.8,8,24.8,24.5V367c0,16.5-8.6,24.5-24.8,24.5h-20.7v-60.3h20.7V331.1z"/>
		<polygon class="st0" points="151.5,260 168.2,320.4 156.5,320.4 128.2,320.4 116.5,320.4 133.2,260 		"/>
		<polygon class="st0" points="129.1,189.1 141.8,237.5 142.9,237.5 155.6,189.1 175.3,189.1 175.3,249.4 164.2,249.4 150.7,249.4 
			134,249.4 120.5,249.4 109.4,249.4 109.4,189.1 		"/>
	</g>
</g>
</svg>
