<?xml version="1.0" encoding="utf-8"?>
<!-- Generator: Adobe Illustrator 26.4.1, SVG Export Plug-In . SVG Version: 6.00 Build 0)  -->
<svg version="1.1" id="Layer_1" xmlns="http://www.w3.org/2000/svg" xmlns:xlink="http://www.w3.org/1999/xlink" x="0px" y="0px"
	 viewBox="0 0 400 400" style="enable-background:new 0 0 400 400;" xml:space="preserve">
<style type="text/css">
	.st0{fill:none;stroke:#000000;stroke-width:3;stroke-miterlimit:10;}
</style>
<g>
	<g>
		<polygon class="st0" points="224,242.1 224,252.5 205.8,252.5 205.8,302.5 194.4,302.5 194.4,252.5 176.1,252.5 176.1,242.1 		"/>
		<rect x="194.4" y="171.1" class="st0" width="11.4" height="60.3"/>
		<polygon class="st0" points="186.8,100.1 199.6,148.5 200.6,148.5 213.4,100.1 233,100.1 233,160.4 222,160.4 208.4,160.4 
			191.7,160.4 178.2,160.4 167.2,160.4 167.2,100.1 		"/>
	</g>
	<path class="st0" d="M194.4,302.5l-74.6,1 M224,242.1l-77.3,1.4 M176.1,242.1l-56.3,1 M194.4,231.4l-77.7,1 M205.8,231.4l-37.3,1
		 M205.8,171.1l-54.1,1 M167.2,160.4l-57.5,1 M167.2,100.1l-57.5,1 M233,100.1l-57.5,1"/>
	<g>
		<path class="st0" d="M138.5,243.1c16.2,0,24.8,8,24.8,24.5V279c0,16.5-8.6,24.5-24.8,24.5h-20.7v-60.3H138.5z"/>
		<polygon class="st0" points="149.7,172.1 166.4,232.4 154.7,232.4 126.4,232.4 114.7,232.4 131.4,172.1 		"/>
		<polygon class="st0" points="127.3,101.1 140.1,149.5 141.1,149.5 153.8,101.1 173.5,101.1 173.5,161.4 162.5,161.4 148.9,161.4 
			132.2,161.4 118.7,161.4 107.7,161.4 107.7,101.1 		"/>
	</g>
</g>
</svg>
