<?xml version="1.0" encoding="utf-8"?>
<!-- Generator: Adobe Illustrator 26.4.1, SVG Export Plug-In . SVG Version: 6.00 Build 0)  -->
<svg version="1.1" id="Layer_1" xmlns="http://www.w3.org/2000/svg" xmlns:xlink="http://www.w3.org/1999/xlink" x="0px" y="0px"
	 viewBox="0 0 400 400" style="enable-background:new 0 0 400 400;" xml:space="preserve">
<style type="text/css">
	.st0{fill:none;stroke:#000000;stroke-width:3;stroke-miterlimit:10;}
</style>
<g>
	<g>
		<polygon class="st0" points="223.7,242.6 223.7,252.9 205.4,252.9 205.4,302.9 194.1,302.9 194.1,252.9 175.8,252.9 175.8,242.6 
					"/>
		<rect x="194.1" y="171.5" class="st0" width="11.4" height="60.3"/>
		<polygon class="st0" points="186.5,100.6 199.2,149 200.3,149 213,100.6 232.7,100.6 232.7,160.9 221.6,160.9 208.1,160.9 
			191.4,160.9 177.9,160.9 166.8,160.9 166.8,100.6 		"/>
	</g>
	<path class="st0" d="M194.1,302.9l95.4,1 M223.7,242.6l92.7,1.4 M175.8,242.6l113.7,1 M194.1,231.9l92.3,1 M205.4,231.9l132.7,1
		 M205.4,171.5l115.9,1 M166.8,160.9l112.5,1 M166.8,100.6l112.5,1 M232.7,100.6l112.5,1"/>
	<g>
		<path class="st0" d="M310.2,243.6c16.2,0,24.8,8,24.8,24.5v11.4c0,16.5-8.6,24.5-24.8,24.5h-20.7v-60.3H310.2z"/>
		<polygon class="st0" points="321.4,172.5 338.1,232.9 326.4,232.9 298.1,232.9 286.4,232.9 303.1,172.5 		"/>
		<polygon class="st0" points="299,101.6 311.7,150 312.8,150 325.5,101.6 345.2,101.6 345.2,161.9 334.1,161.9 320.6,161.9 
			303.9,161.9 290.4,161.9 279.3,161.9 279.3,101.6 		"/>
	</g>
</g>
</svg>
