<?xml version="1.0" encoding="utf-8"?>
<!-- Generator: Adobe Illustrator 26.4.1, SVG Export Plug-In . SVG Version: 6.00 Build 0)  -->
<svg version="1.1" id="Layer_1" xmlns="http://www.w3.org/2000/svg" xmlns:xlink="http://www.w3.org/1999/xlink" x="0px" y="0px"
	 viewBox="0 0 400 400" style="enable-background:new 0 0 400 400;" xml:space="preserve">
<style type="text/css">
	.st0{fill:none;stroke:#000000;stroke-width:3;stroke-miterlimit:10;}
</style>
<g>
	<g>
		<polygon class="st0" points="224,241.9 224,252.2 205.7,252.2 205.7,302.2 194.3,302.2 194.3,252.2 176.1,252.2 176.1,241.9 		"/>
		<rect x="194.3" y="170.8" class="st0" width="11.4" height="60.3"/>
		<polygon class="st0" points="186.7,99.8 199.5,148.3 200.5,148.3 213.3,99.8 232.9,99.8 232.9,160.1 221.9,160.1 208.4,160.1 
			191.7,160.1 178.1,160.1 167.1,160.1 167.1,99.8 		"/>
	</g>
	<path class="st0" d="M194.3,302.2l-17.6-71 M224,241.9l-20.3-70.6 M176.1,241.9l0.7-71 M194.3,231.1l-20.7-71 M205.7,231.1l19.7-71
		 M205.7,170.8l2.9-71 M167.1,160.1l-0.5-71 M167.1,99.8l-0.5-71 M232.9,99.8l-0.5-71"/>
	<g>
		<path class="st0" d="M197.4,170.8c16.2,0,24.8,8,24.8,24.5v11.4c0,16.5-8.6,24.5-24.8,24.5h-20.7v-60.3L197.4,170.8L197.4,170.8z"
			/>
		<polygon class="st0" points="208.6,99.8 225.4,160.1 213.6,160.1 185.4,160.1 173.6,160.1 190.4,99.8 		"/>
		<polygon class="st0" points="186.2,28.8 199,77.2 200,77.2 212.8,28.8 232.4,28.8 232.4,89.1 221.4,89.1 207.9,89.1 191.1,89.1 
			177.6,89.1 166.6,89.1 166.6,28.8 		"/>
	</g>
</g>
</svg>
