<?xml version="1.0" encoding="utf-8"?>
<!-- Generator: Adobe Illustrator 26.4.1, SVG Export Plug-In . SVG Version: 6.00 Build 0)  -->
<svg version="1.1" id="Layer_1" xmlns="http://www.w3.org/2000/svg" xmlns:xlink="http://www.w3.org/1999/xlink" x="0px" y="0px"
	 viewBox="0 0 400 400" style="enable-background:new 0 0 400 400;" xml:space="preserve">
<style type="text/css">
	.st0{fill:none;stroke:#000000;stroke-width:3;stroke-miterlimit:10;}
</style>
<g>
	<g>
		<polygon class="st0" points="223.8,241.6 223.8,251.9 205.6,251.9 205.6,301.9 194.2,301.9 194.2,251.9 175.9,251.9 175.9,241.6 
					"/>
		<rect x="194.2" y="170.5" class="st0" width="11.4" height="60.3"/>
		<polygon class="st0" points="186.6,99.6 199.3,148 200.4,148 213.1,99.6 232.8,99.6 232.8,159.9 221.8,159.9 208.2,159.9 
			191.5,159.9 178,159.9 166.9,159.9 166.9,99.6 		"/>
	</g>
	<path class="st0" d="M194.2,301.9l-124.6,1 M223.8,241.6L96.6,243 M175.9,241.6l-106.3,1 M194.2,230.9l-127.7,1 M205.6,230.9
		l-87.3,1 M205.6,170.5l-104.1,1 M166.9,159.9l-107.5,1 M166.9,99.6l-107.5,1 M232.8,99.6l-107.5,1"/>
	<g>
		<path class="st0" d="M90.3,242.6c16.2,0,24.8,8,24.8,24.5v11.4c0,16.5-8.6,24.5-24.8,24.5H69.6v-60.3H90.3z"/>
		<polygon class="st0" points="101.5,171.5 118.2,231.9 106.5,231.9 78.2,231.9 66.5,231.9 83.2,171.5 		"/>
		<polygon class="st0" points="79.1,100.6 91.8,149 92.9,149 105.6,100.6 125.3,100.6 125.3,160.9 114.2,160.9 100.7,160.9 
			84,160.9 70.5,160.9 59.4,160.9 59.4,100.6 		"/>
	</g>
</g>
</svg>
