<?xml version="1.0" encoding="utf-8"?>
<!-- Generator: Adobe Illustrator 26.4.1, SVG Export Plug-In . SVG Version: 6.00 Build 0)  -->
<svg version="1.1" id="Layer_1" xmlns="http://www.w3.org/2000/svg" xmlns:xlink="http://www.w3.org/1999/xlink" x="0px" y="0px"
	 viewBox="0 0 400 400" style="enable-background:new 0 0 400 400;" xml:space="preserve">
<style type="text/css">
	.st0{fill:none;stroke:#000000;stroke-width:3;stroke-miterlimit:10;}
</style>
<g>
	<g>
		<polygon class="st0" points="223.7,242 223.7,252.4 205.4,252.4 205.4,302.4 194.1,302.4 194.1,252.4 175.8,252.4 175.8,242 		"/>
		<rect x="194.1" y="171" class="st0" width="11.4" height="60.3"/>
		<polygon class="st0" points="186.5,100 199.2,148.4 200.3,148.4 213,100 232.7,100 232.7,160.3 221.6,160.3 208.1,160.3 
			191.4,160.3 177.9,160.3 166.8,160.3 166.8,100 		"/>
	</g>
	<path class="st0" d="M194.1,302.4l95.4,89 M223.7,242l92.7,89.4 M175.8,242l113.7,89 M194.1,231.3l92.3,89 M205.4,231.3l132.7,89
		 M205.4,171l115.9,89 M166.8,160.3l112.5,89 M166.8,100l112.5,89 M232.7,100l112.5,89"/>
	<g>
		<path class="st0" d="M310.2,331c16.2,0,24.8,8,24.8,24.5v11.4c0,16.5-8.6,24.5-24.8,24.5h-20.7V331H310.2z"/>
		<polygon class="st0" points="321.4,260 338.1,320.3 326.4,320.3 298.1,320.3 286.4,320.3 303.1,260 		"/>
		<polygon class="st0" points="299,189 311.7,237.4 312.8,237.4 325.5,189 345.2,189 345.2,249.3 334.1,249.3 320.6,249.3 
			303.9,249.3 290.4,249.3 279.3,249.3 279.3,189 		"/>
	</g>
</g>
</svg>
