<?xml version="1.0" encoding="utf-8"?>
<!-- Generator: Adobe Illustrator 26.4.1, SVG Export Plug-In . SVG Version: 6.00 Build 0)  -->
<svg version="1.1" id="Layer_1" xmlns="http://www.w3.org/2000/svg" xmlns:xlink="http://www.w3.org/1999/xlink" x="0px" y="0px"
	 viewBox="0 0 256.2 131.8" style="enable-background:new 0 0 256.2 131.8;" xml:space="preserve">
<g>
	<g>
		<g>
			<rect x="2.5" y="2.5" width="23.5" height="126.8"/>
			<path d="M23.5,5v121.8H5V5H23.5 M28.5,0H0v131.8h28.5V0L28.5,0z"/>
		</g>
		<g>
			<rect x="97.5" y="2.5" width="23.5" height="126.8"/>
			<path d="M118.6,5v121.8H100V5H118.6 M123.6,0H95v131.8h28.5V0L123.6,0z"/>
		</g>
		<g>
			<rect x="50" y="2.5" width="23.5" height="88.8"/>
			<path d="M71.1,5v83.8H52.5V5H71.1 M76.1,0H47.5v93.8h28.5V0L76.1,0z"/>
		</g>
	</g>
	<g>
		<rect x="144.7" y="49.4" width="23.5" height="79.9"/>
		<path d="M165.7,51.9v74.9h-18.5V51.9H165.7 M170.7,46.9h-28.5v84.9h28.5V46.9L170.7,46.9z"/>
	</g>
	<g>
		<rect x="144.7" y="2.5" width="23.5" height="23.5"/>
		<path d="M165.7,5v18.5h-18.5V5H165.7 M170.7,0h-28.5v28.5h28.5V0L170.7,0z"/>
	</g>
	<g>
		<g>
			<rect x="192.8" y="49.4" width="23.5" height="79.9"/>
			<path d="M213.8,51.9v74.9h-18.5V51.9H213.8 M218.8,46.9h-28.5v84.9h28.5V46.9L218.8,46.9z"/>
		</g>
		<g>
			<rect x="192.8" y="2.5" width="60.9" height="23.5"/>
			<path d="M251.2,5v18.5h-55.9V5H251.2 M256.2,0h-65.9v28.5h65.9V0L256.2,0z"/>
		</g>
	</g>
</g>
</svg>
