<?xml version="1.0" encoding="UTF-8"?><svg id="Layer_1" xmlns="http://www.w3.org/2000/svg" viewBox="0 0 400 400"><defs><style>.cls-1{fill:none;stroke:#000;stroke-miterlimit:10;stroke-width:3px;}</style></defs><g><polygon class="cls-1" points="284.89 312.97 284.89 323.31 266.62 323.31 266.62 373.29 255.24 373.29 255.24 323.31 236.97 323.31 236.97 312.97 284.89 312.97"/><rect class="cls-1" x="255.24" y="241.92" width="11.38" height="60.32"/><polygon class="cls-1" points="247.66 170.94 260.41 219.37 261.45 219.37 274.2 170.94 293.85 170.94 293.85 231.26 282.82 231.26 269.29 231.26 252.57 231.26 239.04 231.26 228.01 231.26 228.01 170.94 247.66 170.94"/></g><path class="cls-1" d="M255.24,373.29l-77.57-71.01m107.22,10.69l-80.25-70.62m32.34,70.62l-59.31-71.01m77.57,60.29l-80.68-71.01m92.05,71.01l-40.35-71.01m40.35,10.69l-57.07-71.01m18.46,60.36l-60.51-71.01m60.51,10.69l-60.51-71.01m126.35,71.01l-60.51-71.01"/><g><path class="cls-1" d="M198.35,241.95c16.2,0,24.82,8.01,24.82,24.47v11.37c0,16.46-8.62,24.47-24.82,24.47h-20.68v-60.32h20.68Z"/><polygon class="cls-1" points="209.55 170.91 226.27 231.23 214.55 231.23 186.29 231.23 174.57 231.23 191.28 170.91 209.55 170.91"/><polygon class="cls-1" points="187.15 99.93 199.9 148.36 200.93 148.36 213.69 99.93 233.34 99.93 233.34 160.25 222.31 160.25 208.78 160.25 192.06 160.25 178.53 160.25 167.5 160.25 167.5 99.93 187.15 99.93"/></g></svg>