<?xml version="1.0" encoding="UTF-8"?><svg id="Layer_1" xmlns="http://www.w3.org/2000/svg" viewBox="0 0 400 400"><defs><style>.cls-1{fill:none;stroke:#000;stroke-miterlimit:10;stroke-width:3px;}</style></defs><g><polygon class="cls-1" points="161.71 314.13 161.71 324.48 143.44 324.48 143.44 374.46 132.07 374.46 132.07 324.48 113.8 324.48 113.8 314.13 161.71 314.13"/><rect class="cls-1" x="132.07" y="243.09" width="11.38" height="60.32"/><polygon class="cls-1" points="124.48 172.11 137.24 220.54 138.27 220.54 151.03 172.11 170.67 172.11 170.67 232.43 159.64 232.43 146.11 232.43 129.4 232.43 115.87 232.43 104.84 232.43 104.84 172.11 124.48 172.11"/></g><path class="cls-1" d="M132.07,374.46l45.43-71.01m-15.78,10.69l42.75-70.62m-90.66,70.62l63.69-71.01m-45.43,60.29l42.32-71.01m-30.95,71.01l82.65-71.01m-82.65,10.69l65.93-71.01m-104.54,60.36l62.49-71.01m-62.49,10.69l62.49-71.01m3.35,71.01l62.49-71.01"/><g><path class="cls-1" d="M198.18,243.12c16.2,0,24.82,8.01,24.82,24.47v11.37c0,16.46-8.62,24.47-24.82,24.47h-20.68v-60.32h20.68Z"/><polygon class="cls-1" points="209.38 172.07 226.1 232.39 214.38 232.39 186.11 232.39 174.39 232.39 191.11 172.07 209.38 172.07"/><polygon class="cls-1" points="186.97 101.1 199.73 149.53 200.76 149.53 213.51 101.1 233.16 101.1 233.16 161.42 222.13 161.42 208.6 161.42 191.88 161.42 178.36 161.42 167.33 161.42 167.33 101.1 186.97 101.1"/></g></svg>