<?xml version="1.0" encoding="UTF-8"?><svg id="Layer_1" xmlns="http://www.w3.org/2000/svg" viewBox="0 0 400 400"><defs><style>.cls-1{fill:none;stroke:#000;stroke-miterlimit:10;stroke-width:3px;}</style></defs><g><polygon class="cls-1" points="281.71 154.13 281.71 164.48 263.44 164.48 263.44 214.46 252.07 214.46 252.07 164.48 233.8 164.48 233.8 154.13 281.71 154.13"/><rect class="cls-1" x="252.07" y="83.09" width="11.38" height="60.32"/><polygon class="cls-1" points="244.48 12.11 257.24 60.54 258.27 60.54 271.03 12.11 290.67 12.11 290.67 72.43 279.64 72.43 266.11 72.43 249.4 72.43 235.87 72.43 224.84 72.43 224.84 12.11 244.48 12.11"/></g><path class="cls-1" d="M252.07,214.46l-74.57,88.99m104.22-149.31l-77.25,89.38m29.34-89.38l-56.31,88.99m74.57-99.71l-77.68,88.99m89.05-88.99l-37.35,88.99m37.35-149.31l-54.07,88.99m15.46-99.64l-57.51,88.99M224.84,12.11l-57.51,88.99M290.67,12.11l-57.51,88.99"/><g><path class="cls-1" d="M198.18,243.12c16.2,0,24.82,8.01,24.82,24.47v11.37c0,16.46-8.62,24.47-24.82,24.47h-20.68v-60.32h20.68Z"/><polygon class="cls-1" points="209.38 172.07 226.1 232.39 214.38 232.39 186.11 232.39 174.39 232.39 191.11 172.07 209.38 172.07"/><polygon class="cls-1" points="186.97 101.1 199.73 149.53 200.76 149.53 213.51 101.1 233.16 101.1 233.16 161.42 222.13 161.42 208.6 161.42 191.88 161.42 178.36 161.42 167.33 161.42 167.33 101.1 186.97 101.1"/></g></svg>