<?xml version="1.0" encoding="UTF-8"?><svg id="Layer_1" xmlns="http://www.w3.org/2000/svg" viewBox="0 0 400 400"><defs><style>.cls-1{fill:none;stroke:#000;stroke-miterlimit:10;stroke-width:3px;}</style></defs><g><polygon class="cls-1" points="111.71 242.13 111.71 252.48 93.44 252.48 93.44 302.46 82.07 302.46 82.07 252.48 63.8 252.48 63.8 242.13 111.71 242.13"/><rect class="cls-1" x="82.07" y="171.09" width="11.38" height="60.32"/><polygon class="cls-1" points="74.48 100.11 87.24 148.54 88.27 148.54 101.03 100.11 120.67 100.11 120.67 160.43 109.64 160.43 96.11 160.43 79.4 160.43 65.87 160.43 54.84 160.43 54.84 100.11 74.48 100.11"/></g><path class="cls-1" d="M82.07,302.46l95.43,.99m-65.78-61.31l92.75,1.38m-140.66-1.38l113.69,.99m-95.43-11.71l92.32,.99m-80.95-.99l132.65,.99m-132.65-61.31l115.93,.99m-154.54-11.64l112.49,.99M54.84,100.11l112.49,.99m-46.65-.99l112.49,.99"/><g><path class="cls-1" d="M198.18,243.12c16.2,0,24.82,8.01,24.82,24.47v11.37c0,16.46-8.62,24.47-24.82,24.47h-20.68v-60.32h20.68Z"/><polygon class="cls-1" points="209.38 172.07 226.1 232.39 214.38 232.39 186.11 232.39 174.39 232.39 191.11 172.07 209.38 172.07"/><polygon class="cls-1" points="186.97 101.1 199.73 149.53 200.76 149.53 213.51 101.1 233.16 101.1 233.16 161.42 222.13 161.42 208.6 161.42 191.88 161.42 178.36 161.42 167.33 161.42 167.33 101.1 186.97 101.1"/></g></svg>