<?xml version="1.0" encoding="UTF-8"?><svg id="Layer_1" xmlns="http://www.w3.org/2000/svg" viewBox="0 0 400 400"><defs><style>.cls-1{fill:none;stroke:#000;stroke-miterlimit:10;stroke-width:3px;}</style></defs><g><polygon class="cls-1" points="224.46 313.11 224.46 323.45 206.19 323.45 206.19 373.43 194.81 373.43 194.81 323.45 176.54 323.45 176.54 313.11 224.46 313.11"/><rect class="cls-1" x="194.81" y="242.06" width="11.38" height="60.32"/><polygon class="cls-1" points="187.23 171.09 199.98 219.52 201.02 219.52 213.77 171.09 233.42 171.09 233.42 231.41 222.39 231.41 208.86 231.41 192.14 231.41 178.61 231.41 167.58 231.41 167.58 171.09 187.23 171.09"/></g><path class="cls-1" d="M194.81,373.43l-17.57-71.01m47.22,10.69l-20.25-70.62m-27.66,70.62l.69-71.01m17.57,60.29l-20.68-71.01m32.05,71.01l19.65-71.01m-19.65,10.69l2.93-71.01m-41.54,60.36l-.51-71.01m.51,10.69l-.51-71.01m66.35,71.01l-.51-71.01"/><g><path class="cls-1" d="M197.92,242.1c16.2,0,24.82,8.01,24.82,24.47v11.37c0,16.46-8.62,24.47-24.82,24.47h-20.68v-60.32h20.68Z"/><polygon class="cls-1" points="209.12 171.05 225.84 231.37 214.12 231.37 185.86 231.37 174.14 231.37 190.85 171.05 209.12 171.05"/><polygon class="cls-1" points="186.72 100.07 199.47 148.5 200.5 148.5 213.26 100.07 232.91 100.07 232.91 160.39 221.88 160.39 208.35 160.39 191.63 160.39 178.1 160.39 167.07 160.39 167.07 100.07 186.72 100.07"/></g></svg>