<?xml version="1.0" encoding="UTF-8"?><svg id="Layer_1" xmlns="http://www.w3.org/2000/svg" viewBox="0 0 400 400"><defs><style>.cls-1{fill:none;stroke:#000;stroke-miterlimit:10;stroke-width:3px;}</style></defs><g><polygon class="cls-1" points="111.71 154.13 111.71 164.48 93.44 164.48 93.44 214.46 82.07 214.46 82.07 164.48 63.8 164.48 63.8 154.13 111.71 154.13"/><rect class="cls-1" x="82.07" y="83.09" width="11.38" height="60.32"/><polygon class="cls-1" points="74.48 12.11 87.24 60.54 88.27 60.54 101.03 12.11 120.67 12.11 120.67 72.43 109.64 72.43 96.11 72.43 79.4 72.43 65.87 72.43 54.84 72.43 54.84 12.11 74.48 12.11"/></g><path class="cls-1" d="M82.07,214.46l95.43,88.99M111.71,154.13l92.75,89.38M63.8,154.13l113.69,88.99m-95.43-99.71l92.32,88.99m-80.95-88.99l132.65,88.99M93.44,83.09l115.93,88.99M54.84,72.43l112.49,88.99M54.84,12.11l112.49,88.99M120.67,12.11l112.49,88.99"/><g><path class="cls-1" d="M198.18,243.12c16.2,0,24.82,8.01,24.82,24.47v11.37c0,16.46-8.62,24.47-24.82,24.47h-20.68v-60.32h20.68Z"/><polygon class="cls-1" points="209.38 172.07 226.1 232.39 214.38 232.39 186.11 232.39 174.39 232.39 191.11 172.07 209.38 172.07"/><polygon class="cls-1" points="186.97 101.1 199.73 149.53 200.76 149.53 213.51 101.1 233.16 101.1 233.16 161.42 222.13 161.42 208.6 161.42 191.88 161.42 178.36 161.42 167.33 161.42 167.33 101.1 186.97 101.1"/></g></svg>