<?xml version="1.0" encoding="UTF-8"?><svg id="Layer_1" xmlns="http://www.w3.org/2000/svg" viewBox="0 0 1400 1149.6"><defs><style>.cls-1{fill:none;stroke:#000;stroke-miterlimit:10;stroke-width:3px;}</style></defs><g><g><polygon class="cls-1" points="1167.69 923.8 1167.69 934.14 1149.42 934.14 1149.42 984.12 1138.04 984.12 1138.04 934.14 1119.78 934.14 1119.78 923.8 1167.69 923.8"/><rect class="cls-1" x="1138.04" y="852.75" width="11.38" height="60.32"/><polygon class="cls-1" points="1130.46 781.77 1143.21 830.2 1144.25 830.2 1157 781.77 1176.65 781.77 1176.65 842.09 1165.62 842.09 1152.09 842.09 1135.37 842.09 1121.84 842.09 1110.81 842.09 1110.81 781.77 1130.46 781.77"/></g><path class="cls-1" d="M1138.04,984.12l95.43,88.99m-65.78-149.31l92.75,89.38m-140.66-89.38l113.69,88.99m-95.43-99.71l92.32,88.99m-80.95-88.99l132.65,88.99m-132.65-149.31l115.93,88.99m-154.54-99.64l112.49,88.99m-112.49-149.31l112.49,88.99m-46.65-88.99l112.49,88.99"/><g><path class="cls-1" d="M1254.15,1012.78c16.2,0,24.82,8.01,24.82,24.47v11.37c0,16.46-8.62,24.47-24.82,24.47h-20.68v-60.32h20.68Z"/><polygon class="cls-1" points="1265.35 941.74 1282.07 1002.06 1270.35 1002.06 1242.09 1002.06 1230.37 1002.06 1247.09 941.74 1265.35 941.74"/><polygon class="cls-1" points="1242.95 870.76 1255.7 919.19 1256.74 919.19 1269.49 870.76 1289.14 870.76 1289.14 931.08 1278.11 931.08 1264.58 931.08 1247.86 931.08 1234.33 931.08 1223.3 931.08 1223.3 870.76 1242.95 870.76"/></g></g><g><g><polygon class="cls-1" points="1167.69 600.31 1167.69 610.65 1149.42 610.65 1149.42 660.63 1138.04 660.63 1138.04 610.65 1119.78 610.65 1119.78 600.31 1167.69 600.31"/><rect class="cls-1" x="1138.04" y="529.26" width="11.38" height="60.32"/><polygon class="cls-1" points="1130.46 458.29 1143.21 506.72 1144.25 506.72 1157 458.29 1176.65 458.29 1176.65 518.61 1165.62 518.61 1152.09 518.61 1135.37 518.61 1121.84 518.61 1110.81 518.61 1110.81 458.29 1130.46 458.29"/></g><path class="cls-1" d="M1138.04,660.63l95.43,.99m-65.78-61.31l92.75,1.38m-140.66-1.38l113.69,.99m-95.43-11.71l92.32,.99m-80.95-.99l132.65,.99m-132.65-61.31l115.93,.99m-154.54-11.64l112.49,.99m-112.49-61.31l112.49,.99m-46.65-.99l112.49,.99"/><g><path class="cls-1" d="M1254.15,601.3c16.2,0,24.82,8.01,24.82,24.47v11.37c0,16.46-8.62,24.47-24.82,24.47h-20.68v-60.32h20.68Z"/><polygon class="cls-1" points="1265.35 530.25 1282.07 590.57 1270.35 590.57 1242.09 590.57 1230.37 590.57 1247.09 530.25 1265.35 530.25"/><polygon class="cls-1" points="1242.95 459.27 1255.7 507.7 1256.74 507.7 1269.49 459.27 1289.14 459.27 1289.14 519.59 1278.11 519.59 1264.58 519.59 1247.86 519.59 1234.33 519.59 1223.3 519.59 1223.3 459.27 1242.95 459.27"/></g></g><g><g><polygon class="cls-1" points="302.17 600.31 302.17 610.65 283.9 610.65 283.9 660.63 272.52 660.63 272.52 610.65 254.25 610.65 254.25 600.31 302.17 600.31"/><rect class="cls-1" x="272.52" y="529.26" width="11.38" height="60.32"/><polygon class="cls-1" points="264.94 458.29 277.69 506.72 278.73 506.72 291.48 458.29 311.13 458.29 311.13 518.61 300.1 518.61 286.57 518.61 269.85 518.61 256.32 518.61 245.29 518.61 245.29 458.29 264.94 458.29"/></g><path class="cls-1" d="M272.52,660.63l-124.57,.99m154.22-61.31l-127.25,1.38m79.34-1.38l-106.31,.99m124.57-11.71l-127.68,.99m139.05-.99l-87.35,.99m87.35-61.31l-104.07,.99m65.46-11.64l-107.51,.99m107.51-61.31l-107.51,.99m173.35-.99l-107.51,.99"/><g><path class="cls-1" d="M168.63,601.3c16.2,0,24.82,8.01,24.82,24.47v11.37c0,16.46-8.62,24.47-24.82,24.47h-20.68v-60.32h20.68Z"/><polygon class="cls-1" points="179.83 530.25 196.55 590.57 184.83 590.57 156.56 590.57 144.84 590.57 161.56 530.25 179.83 530.25"/><polygon class="cls-1" points="157.43 459.27 170.18 507.7 171.21 507.7 183.97 459.27 203.62 459.27 203.62 519.59 192.58 519.59 179.06 519.59 162.34 519.59 148.81 519.59 137.78 519.59 137.78 459.27 157.43 459.27"/></g></g><g><g><polygon class="cls-1" points="513 600.31 513 610.65 494.73 610.65 494.73 660.63 483.35 660.63 483.35 610.65 465.08 610.65 465.08 600.31 513 600.31"/><rect class="cls-1" x="483.35" y="529.26" width="11.38" height="60.32"/><polygon class="cls-1" points="475.77 458.29 488.52 506.72 489.56 506.72 502.31 458.29 521.96 458.29 521.96 518.61 510.93 518.61 497.4 518.61 480.68 518.61 467.15 518.61 456.12 518.61 456.12 458.29 475.77 458.29"/></g><path class="cls-1" d="M483.35,660.63l-74.57,.99m104.22-61.31l-77.25,1.38m29.34-1.38l-56.31,.99m74.57-11.71l-77.68,.99m89.05-.99l-37.35,.99m37.35-61.31l-54.07,.99m15.46-11.64l-57.51,.99m57.51-61.31l-57.51,.99m123.35-.99l-57.51,.99"/><g><path class="cls-1" d="M427.46,601.3c16.2,0,24.82,8.01,24.82,24.47v11.37c0,16.46-8.62,24.47-24.82,24.47h-20.68v-60.32h20.68Z"/><polygon class="cls-1" points="438.66 530.25 455.38 590.57 443.66 590.57 415.4 590.57 403.68 590.57 420.39 530.25 438.66 530.25"/><polygon class="cls-1" points="416.26 459.27 429.01 507.7 430.04 507.7 442.8 459.27 462.45 459.27 462.45 519.59 451.42 519.59 437.89 519.59 421.17 519.59 407.64 519.59 396.61 519.59 396.61 459.27 416.26 459.27"/></g></g><g><g><polygon class="cls-1" points="688.64 600.77 688.64 611.11 670.37 611.11 670.37 661.09 658.99 661.09 658.99 611.11 640.72 611.11 640.72 600.77 688.64 600.77"/><rect class="cls-1" x="658.99" y="529.72" width="11.38" height="60.32"/><polygon class="cls-1" points="651.41 458.74 664.16 507.17 665.2 507.17 677.95 458.74 697.6 458.74 697.6 519.07 686.57 519.07 673.04 519.07 656.32 519.07 642.79 519.07 631.76 519.07 631.76 458.74 651.41 458.74"/></g><path class="cls-1" d="M658.99,661.09m29.64-60.32-47.91,0,18.27-10.73,11.37,0,0-60.32-38.6-10.65,0-60.32,65.84,0"/><g><path class="cls-1" d="M663.1,601.76c16.2,0,24.82,8.01,24.82,24.47v11.37c0,16.46-8.62,24.47-24.82,24.47h-20.68v-60.32h20.68Z"/><polygon class="cls-1" points="674.3 530.71 691.02 591.03 679.3 591.03 651.03 591.03 639.32 591.03 656.03 530.71 674.3 530.71"/><polygon class="cls-1" points="651.9 459.73 664.65 508.16 665.68 508.16 678.44 459.73 698.09 459.73 698.09 520.05 687.06 520.05 673.53 520.05 656.81 520.05 643.28 520.05 632.25 520.05 632.25 459.73 651.9 459.73"/></g></g><g><g><polygon class="cls-1" points="866.32 600.31 866.32 610.65 848.05 610.65 848.05 660.63 836.67 660.63 836.67 610.65 818.41 610.65 818.41 600.31 866.32 600.31"/><rect class="cls-1" x="836.67" y="529.26" width="11.38" height="60.32"/><polygon class="cls-1" points="829.09 458.29 841.85 506.72 842.88 506.72 855.63 458.29 875.28 458.29 875.28 518.61 864.25 518.61 850.72 518.61 834 518.61 820.47 518.61 809.45 518.61 809.45 458.29 829.09 458.29"/></g><path class="cls-1" d="M836.67,660.63l55.43,.99m-25.78-61.31l42.75,1.38m-90.66-1.38l63.69,.99m-45.43-11.71l42.32,.99m-30.95-.99l82.65,.99m-82.65-61.31l65.93,.99m-104.54-11.64l72.49,.99m-72.49-61.31l62.49,.99m3.35-.99l62.49,.99"/><g><path class="cls-1" d="M912.78,601.3c16.2,0,24.82,8.01,24.82,24.47v11.37c0,16.46-8.62,24.47-24.82,24.47h-20.68v-60.32h20.68Z"/><polygon class="cls-1" points="923.98 530.25 940.7 590.57 928.98 590.57 900.72 590.57 889 590.57 905.72 530.25 923.98 530.25"/><polygon class="cls-1" points="901.58 459.27 914.33 507.7 915.37 507.7 928.12 459.27 947.77 459.27 947.77 519.59 936.74 519.59 923.21 519.59 906.49 519.59 892.96 519.59 881.93 519.59 881.93 459.27 901.58 459.27"/></g></g><g><g><polygon class="cls-1" points="885.93 923.8 885.93 934.14 867.66 934.14 867.66 984.12 856.28 984.12 856.28 934.14 838.01 934.14 838.01 923.8 885.93 923.8"/><rect class="cls-1" x="856.28" y="852.75" width="11.38" height="60.32"/><polygon class="cls-1" points="848.7 781.77 861.45 830.2 862.49 830.2 875.24 781.77 894.89 781.77 894.89 842.09 883.86 842.09 870.33 842.09 853.61 842.09 840.08 842.09 829.05 842.09 829.05 781.77 848.7 781.77"/></g><path class="cls-1" d="M856.28,984.12l45.43,88.99m-15.78-149.31l42.75,89.38m-90.66-89.38l63.69,88.99m-45.43-99.71l42.32,88.99m-30.95-88.99l82.65,88.99m-82.65-149.31l65.93,88.99m-104.54-99.64l62.49,88.99m-62.49-149.31l62.49,88.99m3.35-88.99l62.49,88.99"/><g><path class="cls-1" d="M922.39,1012.78c16.2,0,24.82,8.01,24.82,24.47v11.37c0,16.46-8.62,24.47-24.82,24.47h-20.68v-60.32h20.68Z"/><polygon class="cls-1" points="933.59 941.74 950.31 1002.06 938.59 1002.06 910.33 1002.06 898.61 1002.06 915.32 941.74 933.59 941.74"/><polygon class="cls-1" points="911.19 870.76 923.94 919.19 924.98 919.19 937.73 870.76 957.38 870.76 957.38 931.08 946.35 931.08 932.82 931.08 916.1 931.08 902.57 931.08 891.54 931.08 891.54 870.76 911.19 870.76"/></g></g><g><g><polygon class="cls-1" points="685.5 923.8 685.5 934.14 667.23 934.14 667.23 984.12 655.86 984.12 655.86 934.14 637.59 934.14 637.59 923.8 685.5 923.8"/><rect class="cls-1" x="655.86" y="852.75" width="11.38" height="60.32"/><polygon class="cls-1" points="648.28 781.77 661.03 830.2 662.06 830.2 674.82 781.77 694.46 781.77 694.46 842.09 683.43 842.09 669.9 842.09 653.19 842.09 639.66 842.09 628.63 842.09 628.63 781.77 648.28 781.77"/></g><path class="cls-1" d="M655.86,984.12l-14.57,88.99m44.22-149.31l-17.25,89.38m-30.66-89.38l3.69,88.99m14.57-99.71l-17.68,88.99m29.05-88.99l22.65,88.99m-22.65-149.31l5.93,88.99m-44.54-99.64l2.49,88.99m-2.49-149.31l2.49,88.99m63.35-88.99l2.49,88.99"/><g><path class="cls-1" d="M661.97,1012.78c16.2,0,24.82,8.01,24.82,24.47v11.37c0,16.46-8.62,24.47-24.82,24.47h-20.68v-60.32h20.68Z"/><polygon class="cls-1" points="673.17 941.74 689.89 1002.06 678.17 1002.06 649.9 1002.06 638.18 1002.06 654.9 941.74 673.17 941.74"/><polygon class="cls-1" points="650.76 870.76 663.52 919.19 664.55 919.19 677.3 870.76 696.95 870.76 696.95 931.08 685.92 931.08 672.39 931.08 655.68 931.08 642.15 931.08 631.12 931.08 631.12 870.76 650.76 870.76"/></g></g><g><g><polygon class="cls-1" points="495.08 923.8 495.08 934.14 476.81 934.14 476.81 984.12 465.43 984.12 465.43 934.14 447.17 934.14 447.17 923.8 495.08 923.8"/><rect class="cls-1" x="465.43" y="852.75" width="11.38" height="60.32"/><polygon class="cls-1" points="457.85 781.77 470.6 830.2 471.64 830.2 484.39 781.77 504.04 781.77 504.04 842.09 493.01 842.09 479.48 842.09 462.76 842.09 449.23 842.09 438.2 842.09 438.2 781.77 457.85 781.77"/></g><path class="cls-1" d="M465.43,984.12l-74.57,88.99m104.22-149.31l-77.25,89.38m29.34-89.38l-56.31,88.99m74.57-99.71l-77.68,88.99m89.05-88.99l-37.35,88.99m37.35-149.31l-54.07,88.99m15.46-99.64l-57.51,88.99m57.51-149.31l-57.51,88.99m123.35-88.99l-57.51,88.99"/><g><path class="cls-1" d="M411.54,1012.78c16.2,0,24.82,8.01,24.82,24.47v11.37c0,16.46-8.62,24.47-24.82,24.47h-20.68v-60.32h20.68Z"/><polygon class="cls-1" points="422.74 941.74 439.46 1002.06 427.74 1002.06 399.48 1002.06 387.76 1002.06 404.48 941.74 422.74 941.74"/><polygon class="cls-1" points="400.34 870.76 413.09 919.19 414.13 919.19 426.88 870.76 446.53 870.76 446.53 931.08 435.5 931.08 421.97 931.08 405.25 931.08 391.72 931.08 380.69 931.08 380.69 870.76 400.34 870.76"/></g></g><g><g><polygon class="cls-1" points="304.65 923.8 304.65 934.14 286.38 934.14 286.38 984.12 275.01 984.12 275.01 934.14 256.74 934.14 256.74 923.8 304.65 923.8"/><rect class="cls-1" x="275.01" y="852.75" width="11.38" height="60.32"/><polygon class="cls-1" points="267.43 781.77 280.18 830.2 281.21 830.2 293.97 781.77 313.62 781.77 313.62 842.09 302.58 842.09 289.06 842.09 272.34 842.09 258.81 842.09 247.78 842.09 247.78 781.77 267.43 781.77"/></g><path class="cls-1" d="M275.01,984.12l-124.57,88.99m154.22-149.31l-127.25,89.38m79.34-89.38l-106.31,88.99m124.57-99.71l-127.68,88.99m139.05-88.99l-87.35,88.99m87.35-149.31l-104.07,88.99m65.46-99.64l-107.51,88.99m107.51-149.31l-107.51,88.99m173.35-88.99l-107.51,88.99"/><g><path class="cls-1" d="M171.12,1012.78c16.2,0,24.82,8.01,24.82,24.47v11.37c0,16.46-8.62,24.47-24.82,24.47h-20.68v-60.32h20.68Z"/><polygon class="cls-1" points="182.32 941.74 199.04 1002.06 187.32 1002.06 159.05 1002.06 147.33 1002.06 164.05 941.74 182.32 941.74"/><polygon class="cls-1" points="159.91 870.76 172.67 919.19 173.7 919.19 186.46 870.76 206.1 870.76 206.1 931.08 195.07 931.08 181.54 931.08 164.83 931.08 151.3 931.08 140.27 931.08 140.27 870.76 159.91 870.76"/></g></g><g><g><polygon class="cls-1" points="1167.69 276.64 1167.69 286.98 1149.42 286.98 1149.42 336.96 1138.04 336.96 1138.04 286.98 1119.78 286.98 1119.78 276.64 1167.69 276.64"/><rect class="cls-1" x="1138.04" y="205.59" width="11.38" height="60.32"/><polygon class="cls-1" points="1130.46 134.61 1143.21 183.04 1144.25 183.04 1157 134.61 1176.65 134.61 1176.65 194.94 1165.62 194.94 1152.09 194.94 1135.37 194.94 1121.84 194.94 1110.81 194.94 1110.81 134.61 1130.46 134.61"/></g><path class="cls-1" d="M1138.04,336.96l95.43-71.01m-65.78,10.69l92.75-70.62m-140.66,70.62l113.69-71.01m-95.43,60.29l92.32-71.01m-80.95,71.01l132.65-71.01m-132.65,10.69l115.93-71.01m-154.54,60.36l112.49-71.01m-112.49,10.69l112.49-71.01m-46.65,71.01l112.49-71.01"/><g><path class="cls-1" d="M1254.15,205.63c16.2,0,24.82,8.01,24.82,24.47v11.37c0,16.46-8.62,24.47-24.82,24.47h-20.68v-60.32h20.68Z"/><polygon class="cls-1" points="1265.35 134.58 1282.07 194.9 1270.35 194.9 1242.09 194.9 1230.37 194.9 1247.09 134.58 1265.35 134.58"/><polygon class="cls-1" points="1242.95 63.6 1255.7 112.03 1256.74 112.03 1269.49 63.6 1289.14 63.6 1289.14 123.92 1278.11 123.92 1264.58 123.92 1247.86 123.92 1234.33 123.92 1223.3 123.92 1223.3 63.6 1242.95 63.6"/></g></g><g><g><polygon class="cls-1" points="513.77 276.64 513.77 286.98 495.5 286.98 495.5 336.96 484.12 336.96 484.12 286.98 465.85 286.98 465.85 276.64 513.77 276.64"/><rect class="cls-1" x="484.12" y="205.59" width="11.38" height="60.32"/><polygon class="cls-1" points="476.54 134.61 489.29 183.04 490.33 183.04 503.08 134.61 522.73 134.61 522.73 194.94 511.7 194.94 498.17 194.94 481.45 194.94 467.92 194.94 456.89 194.94 456.89 134.61 476.54 134.61"/></g><path class="cls-1" d="M484.12,336.96l-77.57-71.01m107.22,10.69l-80.25-70.62m32.34,70.62l-59.31-71.01m77.57,60.29l-80.68-71.01m92.05,71.01l-40.35-71.01m40.35,10.69l-57.07-71.01m18.46,60.36l-60.51-71.01m60.51,10.69l-60.51-71.01m126.35,71.01l-60.51-71.01"/><g><path class="cls-1" d="M427.23,205.63c16.2,0,24.82,8.01,24.82,24.47v11.37c0,16.46-8.62,24.47-24.82,24.47h-20.68v-60.32h20.68Z"/><polygon class="cls-1" points="438.43 134.58 455.15 194.9 443.43 194.9 415.16 194.9 403.44 194.9 420.16 134.58 438.43 134.58"/><polygon class="cls-1" points="416.03 63.6 428.78 112.03 429.81 112.03 442.57 63.6 462.21 63.6 462.21 123.92 451.18 123.92 437.66 123.92 420.94 123.92 407.41 123.92 396.38 123.92 396.38 63.6 416.03 63.6"/></g></g><g><g><polygon class="cls-1" points="294.16 276.64 294.16 286.98 275.89 286.98 275.89 336.96 264.52 336.96 264.52 286.98 246.25 286.98 246.25 276.64 294.16 276.64"/><rect class="cls-1" x="264.52" y="205.59" width="11.38" height="60.32"/><polygon class="cls-1" points="256.94 134.61 269.69 183.04 270.72 183.04 283.48 134.61 303.13 134.61 303.13 194.94 292.09 194.94 278.57 194.94 261.85 194.94 248.32 194.94 237.29 194.94 237.29 134.61 256.94 134.61"/></g><path class="cls-1" d="M264.52,336.96l-126.57-71.01m156.22,10.69l-129.25-70.62m81.34,70.62l-108.31-71.01m126.57,60.29l-129.68-71.01m141.05,71.01l-89.35-71.01m89.35,10.69l-106.07-71.01m67.46,60.36L127.78,123.92m109.51,10.69L127.78,63.6m175.35,71.01L193.61,63.6"/><g><path class="cls-1" d="M157.63,205.63c16.2,0,24.82,8.01,24.82,24.47v11.37c0,16.46-8.62,24.47-24.82,24.47h-20.68v-60.32h20.68Z"/><polygon class="cls-1" points="168.83 134.58 185.55 194.9 173.83 194.9 145.56 194.9 133.84 194.9 150.56 134.58 168.83 134.58"/><polygon class="cls-1" points="146.42 63.6 159.18 112.03 160.21 112.03 172.97 63.6 192.61 63.6 192.61 123.92 181.58 123.92 168.05 123.92 151.34 123.92 137.81 123.92 126.78 123.92 126.78 63.6 146.42 63.6"/></g></g><g><g><polygon class="cls-1" points="688.88 276.64 688.88 286.98 670.61 286.98 670.61 336.96 659.24 336.96 659.24 286.98 640.97 286.98 640.97 276.64 688.88 276.64"/><rect class="cls-1" x="659.24" y="205.59" width="11.38" height="60.32"/><polygon class="cls-1" points="651.65 134.61 664.41 183.04 665.44 183.04 678.19 134.61 697.84 134.61 697.84 194.94 686.81 194.94 673.28 194.94 656.57 194.94 643.04 194.94 632.01 194.94 632.01 134.61 651.65 134.61"/></g><path class="cls-1" d="M659.24,336.96l-17.57-71.01m47.22,10.69l-20.25-70.62m-27.66,70.62l.69-71.01m17.57,60.29l-20.68-71.01m32.05,71.01l19.65-71.01m-19.65,10.69l2.93-71.01m-41.54,60.36l-.51-71.01m.51,10.69l-.51-71.01m66.35,71.01l-.51-71.01"/><g><path class="cls-1" d="M662.34,205.63c16.2,0,24.82,8.01,24.82,24.47v11.37c0,16.46-8.62,24.47-24.82,24.47h-20.68v-60.32h20.68Z"/><polygon class="cls-1" points="673.55 134.58 690.26 194.9 678.54 194.9 650.28 194.9 638.56 194.9 655.28 134.58 673.55 134.58"/><polygon class="cls-1" points="651.14 63.6 663.9 112.03 664.93 112.03 677.68 63.6 697.33 63.6 697.33 123.92 686.3 123.92 672.77 123.92 656.05 123.92 642.52 123.92 631.49 123.92 631.49 63.6 651.14 63.6"/></g></g><g><g><polygon class="cls-1" points="871.6 276.64 871.6 286.98 853.33 286.98 853.33 336.96 841.95 336.96 841.95 286.98 823.68 286.98 823.68 276.64 871.6 276.64"/><rect class="cls-1" x="841.95" y="205.59" width="11.38" height="60.32"/><polygon class="cls-1" points="834.37 134.61 847.12 183.04 848.16 183.04 860.91 134.61 880.56 134.61 880.56 194.94 869.53 194.94 856 194.94 839.28 194.94 825.75 194.94 814.72 194.94 814.72 134.61 834.37 134.61"/></g><path class="cls-1" d="M841.95,336.96l45.43-71.01m-15.78,10.69l42.75-70.62m-90.66,70.62l63.69-71.01m-45.43,60.29l42.32-71.01m-30.95,71.01l82.65-71.01m-82.65,10.69l65.93-71.01m-104.54,60.36l62.49-71.01m-62.49,10.69l62.49-71.01m3.35,71.01l62.49-71.01"/><g><path class="cls-1" d="M908.06,205.63c16.2,0,24.82,8.01,24.82,24.47v11.37c0,16.46-8.62,24.47-24.82,24.47h-20.68v-60.32h20.68Z"/><polygon class="cls-1" points="919.26 134.58 935.98 194.9 924.26 194.9 895.99 194.9 884.27 194.9 900.99 134.58 919.26 134.58"/><polygon class="cls-1" points="896.86 63.6 909.61 112.03 910.64 112.03 923.4 63.6 943.05 63.6 943.05 123.92 932.01 123.92 918.49 123.92 901.77 123.92 888.24 123.92 877.21 123.92 877.21 63.6 896.86 63.6"/></g></g></svg>