<?xml version="1.0" encoding="UTF-8"?><svg id="Layer_1" xmlns="http://www.w3.org/2000/svg" viewBox="0 0 400 400"><defs><style>.cls-1{fill:none;stroke:#000;stroke-miterlimit:10;stroke-width:3px;}</style></defs><g><polygon class="cls-1" points="334.22 313.15 334.22 323.49 315.95 323.49 315.95 373.47 304.58 373.47 304.58 323.49 286.31 323.49 286.31 313.15 334.22 313.15"/><rect class="cls-1" x="304.58" y="242.1" width="11.38" height="60.32"/><polygon class="cls-1" points="297 171.12 309.75 219.55 310.78 219.55 323.54 171.12 343.18 171.12 343.18 231.44 332.15 231.44 318.63 231.44 301.91 231.44 288.38 231.44 277.35 231.44 277.35 171.12 297 171.12"/></g><path class="cls-1" d="M304.58,373.47l-126.57-71.01m156.22,10.69l-129.25-70.62m81.34,70.62l-108.31-71.01m126.57,60.29l-129.68-71.01m141.05,71.01l-89.35-71.01m89.35,10.69l-106.07-71.01m67.46,60.36l-109.51-71.01m109.51,10.69l-109.51-71.01m175.35,71.01l-109.51-71.01"/><g><path class="cls-1" d="M197.69,242.13c16.2,0,24.82,8.01,24.82,24.47v11.37c0,16.46-8.62,24.47-24.82,24.47h-20.68v-60.32h20.68Z"/><polygon class="cls-1" points="208.89 171.09 225.61 231.41 213.89 231.41 185.62 231.41 173.9 231.41 190.62 171.09 208.89 171.09"/><polygon class="cls-1" points="186.48 100.11 199.24 148.54 200.27 148.54 213.03 100.11 232.67 100.11 232.67 160.43 221.64 160.43 208.11 160.43 191.4 160.43 177.87 160.43 166.84 160.43 166.84 100.11 186.48 100.11"/></g></svg>