<?xml version="1.0" encoding="UTF-8"?><svg id="Layer_1" xmlns="http://www.w3.org/2000/svg" viewBox="0 0 400 400"><defs><style>.cls-1{fill:none;stroke:#000;stroke-miterlimit:10;stroke-width:3px;}</style></defs><g><polygon class="cls-1" points="151.71 242.13 151.71 252.48 133.44 252.48 133.44 302.46 122.07 302.46 122.07 252.48 103.8 252.48 103.8 242.13 151.71 242.13"/><rect class="cls-1" x="122.07" y="171.09" width="11.38" height="60.32"/><polygon class="cls-1" points="114.48 100.11 127.24 148.54 128.27 148.54 141.03 100.11 160.67 100.11 160.67 160.43 149.64 160.43 136.11 160.43 119.4 160.43 105.87 160.43 94.84 160.43 94.84 100.11 114.48 100.11"/></g><path class="cls-1" d="M122.07,302.46l55.43,.99m-25.78-61.31l42.75,1.38m-90.66-1.38l63.69,.99m-45.43-11.71l42.32,.99m-30.95-.99l82.65,.99m-82.65-61.31l65.93,.99m-104.54-11.64l72.49,.99m-72.49-61.31l62.49,.99m3.35-.99l62.49,.99"/><g><path class="cls-1" d="M198.18,243.12c16.2,0,24.82,8.01,24.82,24.47v11.37c0,16.46-8.62,24.47-24.82,24.47h-20.68v-60.32h20.68Z"/><polygon class="cls-1" points="209.38 172.07 226.1 232.39 214.38 232.39 186.11 232.39 174.39 232.39 191.11 172.07 209.38 172.07"/><polygon class="cls-1" points="186.97 101.1 199.73 149.53 200.76 149.53 213.51 101.1 233.16 101.1 233.16 161.42 222.13 161.42 208.6 161.42 191.88 161.42 178.36 161.42 167.33 161.42 167.33 101.1 186.97 101.1"/></g></svg>