<?xml version="1.0" encoding="UTF-8"?><svg id="Layer_1" xmlns="http://www.w3.org/2000/svg" viewBox="0 0 400 400"><defs><style>.cls-1{fill:none;stroke:#000;stroke-miterlimit:10;stroke-width:3px;}</style></defs><g><polygon class="cls-1" points="331.71 154.06 331.71 164.4 313.44 164.4 313.44 214.38 302.07 214.38 302.07 164.4 283.8 164.4 283.8 154.06 331.71 154.06"/><rect class="cls-1" x="302.07" y="83.01" width="11.38" height="60.32"/><polygon class="cls-1" points="294.48 12.04 307.24 60.47 308.27 60.47 321.03 12.04 340.67 12.04 340.67 72.36 329.64 72.36 316.11 72.36 299.4 72.36 285.87 72.36 274.84 72.36 274.84 12.04 294.48 12.04"/></g><path class="cls-1" d="M302.07,214.38l-124.57,88.99m154.22-149.31l-127.25,89.38m79.34-89.38l-106.31,88.99m124.57-99.71l-127.68,88.99m139.05-88.99l-87.35,88.99m87.35-149.31l-104.07,88.99m65.46-99.64l-107.51,88.99M274.84,12.04l-107.51,88.99M340.67,12.04l-107.51,88.99"/><g><path class="cls-1" d="M198.18,243.05c16.2,0,24.82,8.01,24.82,24.47v11.37c0,16.46-8.62,24.47-24.82,24.47h-20.68v-60.32h20.68Z"/><polygon class="cls-1" points="209.38 172 226.1 232.32 214.38 232.32 186.11 232.32 174.39 232.32 191.11 172 209.38 172"/><polygon class="cls-1" points="186.97 101.03 199.73 149.45 200.76 149.45 213.51 101.03 233.16 101.03 233.16 161.35 222.13 161.35 208.6 161.35 191.88 161.35 178.36 161.35 167.33 161.35 167.33 101.03 186.97 101.03"/></g></svg>