<?xml version="1.0" encoding="UTF-8"?><svg id="Layer_1" xmlns="http://www.w3.org/2000/svg" viewBox="0 0 400 400"><defs><style>.cls-1{fill:none;stroke:#000;stroke-miterlimit:10;stroke-width:3px;}</style></defs><g><polygon class="cls-1" points="112.06 313.04 112.06 323.38 93.79 323.38 93.79 373.36 82.41 373.36 82.41 323.38 64.14 323.38 64.14 313.04 112.06 313.04"/><rect class="cls-1" x="82.41" y="241.99" width="11.38" height="60.32"/><polygon class="cls-1" points="74.83 171.01 87.58 219.44 88.62 219.44 101.37 171.01 121.02 171.01 121.02 231.34 109.99 231.34 96.46 231.34 79.74 231.34 66.21 231.34 55.18 231.34 55.18 171.01 74.83 171.01"/></g><path class="cls-1" d="M82.41,373.36l95.43-71.01m-65.78,10.69l92.75-70.62m-140.66,70.62l113.69-71.01m-95.43,60.29l92.32-71.01m-80.95,71.01l132.65-71.01m-132.65,10.69l115.93-71.01M55.18,231.34l112.49-71.01m-112.49,10.69l112.49-71.01m-46.65,71.01l112.49-71.01"/><g><path class="cls-1" d="M198.52,242.03c16.2,0,24.82,8.01,24.82,24.47v11.37c0,16.46-8.62,24.47-24.82,24.47h-20.68v-60.32h20.68Z"/><polygon class="cls-1" points="209.72 170.98 226.44 231.3 214.72 231.3 186.46 231.3 174.74 231.3 191.45 170.98 209.72 170.98"/><polygon class="cls-1" points="187.32 100 200.07 148.43 201.1 148.43 213.86 100 233.51 100 233.51 160.32 222.48 160.32 208.95 160.32 192.23 160.32 178.7 160.32 167.67 160.32 167.67 100 187.32 100"/></g></svg>