<?xml version="1.0" encoding="UTF-8"?><svg id="Layer_1" xmlns="http://www.w3.org/2000/svg" viewBox="0 0 400 400"><defs><style>.cls-1{fill:none;stroke:#000;stroke-miterlimit:10;stroke-width:3px;}</style></defs><g><polygon class="cls-1" points="221.71 154.13 221.71 164.48 203.44 164.48 203.44 214.46 192.07 214.46 192.07 164.48 173.8 164.48 173.8 154.13 221.71 154.13"/><rect class="cls-1" x="192.07" y="83.09" width="11.38" height="60.32"/><polygon class="cls-1" points="184.48 12.11 197.24 60.54 198.27 60.54 211.03 12.11 230.67 12.11 230.67 72.43 219.64 72.43 206.11 72.43 189.4 72.43 175.87 72.43 164.84 72.43 164.84 12.11 184.48 12.11"/></g><path class="cls-1" d="M192.07,214.46l-14.57,88.99m44.22-149.31l-17.25,89.38m-30.66-89.38l3.69,88.99m14.57-99.71l-17.68,88.99m29.05-88.99l22.65,88.99m-22.65-149.31l5.93,88.99m-44.54-99.64l2.49,88.99m-2.49-149.31l2.49,88.99M230.67,12.11l2.49,88.99"/><g><path class="cls-1" d="M198.18,243.12c16.2,0,24.82,8.01,24.82,24.47v11.37c0,16.46-8.62,24.47-24.82,24.47h-20.68v-60.32h20.68Z"/><polygon class="cls-1" points="209.38 172.07 226.1 232.39 214.38 232.39 186.11 232.39 174.39 232.39 191.11 172.07 209.38 172.07"/><polygon class="cls-1" points="186.97 101.1 199.73 149.53 200.76 149.53 213.51 101.1 233.16 101.1 233.16 161.42 222.13 161.42 208.6 161.42 191.88 161.42 178.36 161.42 167.33 161.42 167.33 101.1 186.97 101.1"/></g></svg>