<?xml version="1.0" encoding="UTF-8"?><svg id="Layer_1" xmlns="http://www.w3.org/2000/svg" width="67.59" height="204.1" viewBox="0 0 67.59 204.1"><defs><style>.cls-1{fill:#fff;stroke:#000;stroke-miterlimit:10;stroke-width:1.75px;}</style></defs><path class="cls-1" d="M31.73,142.9c16.2,0,24.82,8.01,24.82,24.47v11.37c0,16.46-8.62,24.47-24.82,24.47H11.04v-60.32H31.73Z"/><polygon class="cls-1" points="42.93 71.85 59.65 132.17 47.93 132.17 19.66 132.17 7.94 132.17 24.66 71.85 42.93 71.85"/><polygon class="cls-1" points="20.52 .88 33.28 49.3 34.31 49.3 47.06 .88 66.71 .88 66.71 61.2 55.68 61.2 42.15 61.2 25.43 61.2 11.91 61.2 .88 61.2 .88 .88 20.52 .88"/></svg>