<?xml version="1.0" encoding="UTF-8"?><svg id="Layer_1" xmlns="http://www.w3.org/2000/svg" viewBox="0 0 400 400"><defs><style>.cls-1{fill:none;stroke:#000;stroke-miterlimit:10;stroke-width:1.25px;}</style></defs><g><polygon class="cls-1" points="167.82 280.98 167.82 291.32 149.55 291.32 149.55 341.3 138.17 341.3 138.17 291.32 119.91 291.32 119.91 280.98 167.82 280.98"/><rect class="cls-1" x="138.17" y="209.93" width="11.38" height="60.32"/><polygon class="cls-1" points="130.59 138.95 143.35 187.38 144.38 187.38 157.13 138.95 176.78 138.95 176.78 199.27 165.75 199.27 152.22 199.27 135.5 199.27 121.97 199.27 110.95 199.27 110.95 138.95 130.59 138.95"/></g><path class="cls-1" d="M138.17,341.3l95.43-80.01m-65.78,19.69l87.93-80m-135.84,80l113.69-80.01m-95.43,69.29l92.32-80.01m-80.95,80.01l132.65-80.01m-132.65,19.69l115.93-79.01M110.95,199.27l112.49-80.01m-112.49,19.69L223.43,58.94m-46.65,80.01l112.49-80.01"/><g><path class="cls-1" d="M254.28,200.96c16.2,0,24.82,8.01,24.82,24.47v11.37c0,16.46-8.62,24.47-24.82,24.47h-20.68v-60.32h20.68Z"/><polygon class="cls-1" points="265.48 129.91 282.2 190.24 270.48 190.24 242.22 190.24 230.5 190.24 247.22 129.91 265.48 129.91"/><polygon class="cls-1" points="243.08 58.94 255.83 107.37 256.87 107.37 269.62 58.94 289.27 58.94 289.27 119.26 278.24 119.26 264.71 119.26 247.99 119.26 234.46 119.26 223.43 119.26 223.43 58.94 243.08 58.94"/></g></svg>