<?xml version="1.0" encoding="UTF-8"?><svg id="Layer_1" xmlns="http://www.w3.org/2000/svg" viewBox="0 0 400 400"><defs><style>.cls-1{fill:#fff;}.cls-1,.cls-2{stroke:#f0f;stroke-miterlimit:10;stroke-width:1.75px;}.cls-2{fill:none;}</style></defs><line class="cls-2" x1="194.07" y1="340.99" x2="177.49" y2="260.98"/><line class="cls-2" x1="175.8" y1="280.67" x2="177.49" y2="200.66"/><line class="cls-2" x1="223.71" y1="280.67" x2="198.18" y2="200.66"/><line class="cls-2" x1="194.07" y1="269.94" x2="174.39" y2="189.93"/><line class="cls-2" x1="205.44" y1="269.94" x2="226.1" y2="189.93"/><line class="cls-2" x1="205.44" y1="209.62" x2="209.38" y2="129.61"/><line class="cls-2" x1="167.08" y1="138.65" x2="167.57" y2="58.63"/><line class="cls-2" x1="232.67" y1="138.65" x2="233.16" y2="58.64"/><g><g><polygon class="cls-2" points="223.96 280.67 223.96 291.01 205.69 291.01 205.69 340.99 194.31 340.99 194.31 291.01 176.04 291.01 176.04 280.67 223.96 280.67"/><rect class="cls-2" x="194.31" y="209.62" width="11.38" height="60.32"/><polygon class="cls-2" points="186.73 138.65 199.48 187.08 200.52 187.08 213.27 138.65 232.92 138.65 232.92 198.97 221.89 198.97 208.36 198.97 191.64 198.97 178.11 198.97 167.08 198.97 167.08 138.65 186.73 138.65"/></g><path class="cls-2" d="M194.07,300.99m29.64-60.32-47.91,0,18.27-10.73,11.37,0,0-60.32-38.6-10.65,0-60.32,65.84,0"/><g><path class="cls-1" d="M197.93,200.66c16.2,0,24.82,8.01,24.82,24.47v11.37c0,16.46-8.62,24.47-24.82,24.47h-20.68v-60.32h20.68Z"/><polygon class="cls-1" points="209.13 129.61 225.85 189.93 214.13 189.93 185.87 189.93 174.15 189.93 190.87 129.61 209.13 129.61"/><polygon class="cls-1" points="186.73 58.63 199.48 107.06 200.52 107.06 213.27 58.63 232.92 58.63 232.92 118.96 221.89 118.96 208.36 118.96 191.64 118.96 178.11 118.96 167.08 118.96 167.08 58.63 186.73 58.63"/></g></g></svg>