<?xml version="1.0" encoding="UTF-8"?><svg id="Layer_1" xmlns="http://www.w3.org/2000/svg" viewBox="0 0 400 400"><defs><style>.cls-1{fill:#fff;}.cls-1,.cls-2{stroke:#0fc;stroke-miterlimit:10;stroke-width:1.75px;}.cls-2{fill:none;}</style></defs><g><polygon class="cls-2" points="167.82 201.53 167.82 211.87 149.55 211.87 149.55 261.85 138.17 261.85 138.17 211.87 119.91 211.87 119.91 201.53 167.82 201.53"/><rect class="cls-2" x="138.17" y="130.48" width="11.38" height="60.32"/><polygon class="cls-2" points="130.59 59.5 143.35 107.93 144.38 107.93 157.13 59.5 176.78 59.5 176.78 119.82 165.75 119.82 152.22 119.82 135.5 119.82 121.97 119.82 110.95 119.82 110.95 59.5 130.59 59.5"/></g><path class="cls-2" d="M138.17,261.85l95.43,79.99m-65.78-140.31l87.93,80M119.91,201.53l113.69,79.99m-95.43-90.71l92.32,79.99m-80.95-79.99l132.65,79.99M149.55,130.48l115.93,80.99M110.95,119.82l112.49,79.99M110.95,59.5l112.49,79.99m-46.65-79.99l112.49,79.99"/><g><path class="cls-1" d="M254.28,281.51c16.2,0,24.82,8.01,24.82,24.47v11.37c0,16.46-8.62,24.47-24.82,24.47h-20.68v-60.32h20.68Z"/><polygon class="cls-1" points="265.48 210.46 282.2 270.79 270.48 270.79 242.22 270.79 230.5 270.79 247.22 210.46 265.48 210.46"/><polygon class="cls-1" points="243.08 139.49 255.83 187.92 256.87 187.92 269.62 139.49 289.27 139.49 289.27 199.81 278.24 199.81 264.71 199.81 247.99 199.81 234.46 199.81 223.43 199.81 223.43 139.49 243.08 139.49"/></g></svg>