<?xml version="1.0" encoding="UTF-8"?><svg id="Layer_1" xmlns="http://www.w3.org/2000/svg" viewBox="0 0 400 400"><defs><style>.cls-1{fill:none;stroke:#000;stroke-miterlimit:10;stroke-width:3px;}</style></defs><g><polygon class="cls-1" points="138.21 283.66 138.21 294 119.94 294 119.94 343.98 108.57 343.98 108.57 294 90.3 294 90.3 283.66 138.21 283.66"/><rect class="cls-1" x="108.57" y="212.61" width="11.38" height="60.32"/><polygon class="cls-1" points="100.98 141.64 113.74 190.07 114.77 190.07 127.53 141.64 147.17 141.64 147.17 201.96 136.14 201.96 122.61 201.96 105.9 201.96 92.37 201.96 81.34 201.96 81.34 141.64 100.98 141.64"/></g><path class="cls-1" d="M108.57,343.98l155.43-71.01m-125.78,10.69l152.75-70.62m-200.66,70.62l173.69-71.01m-155.43,60.29l152.32-71.01m-140.95,71.01l192.65-71.01m-192.65,10.69l175.93-71.01m-214.54,60.36l172.49-71.01m-172.49,10.69L253.82,70.62m-106.65,71.01l172.49-71.01"/><g><path class="cls-1" d="M284.68,212.65c16.2,0,24.82,8.01,24.82,24.47v11.37c0,16.46-8.62,24.47-24.82,24.47h-20.68v-60.32h20.68Z"/><polygon class="cls-1" points="295.88 141.6 312.6 201.92 300.88 201.92 272.61 201.92 260.89 201.92 277.61 141.6 295.88 141.6"/><polygon class="cls-1" points="273.47 70.62 286.23 119.05 287.26 119.05 300.01 70.62 319.66 70.62 319.66 130.95 308.63 130.95 295.1 130.95 278.38 130.95 264.86 130.95 253.82 130.95 253.82 70.62 273.47 70.62"/></g></svg>