<?xml version="1.0" encoding="UTF-8"?><svg id="Layer_1" xmlns="http://www.w3.org/2000/svg" viewBox="0 0 400 400"><defs><style>.cls-1{fill:none;stroke:#000;stroke-miterlimit:10;stroke-width:3px;}</style></defs><g><polygon class="cls-1" points="168.78 196.61 168.78 206.95 150.51 206.95 150.51 256.93 139.14 256.93 139.14 206.95 120.87 206.95 120.87 196.61 168.78 196.61"/><rect class="cls-1" x="139.14" y="125.56" width="11.38" height="60.32"/><polygon class="cls-1" points="131.55 54.58 144.31 103.01 145.34 103.01 158.09 54.58 177.74 54.58 177.74 114.9 166.71 114.9 153.18 114.9 136.47 114.9 122.94 114.9 111.91 114.9 111.91 54.58 131.55 54.58"/></g><path class="cls-1" d="M139.14,256.93l95.43,88.99m-65.78-149.31l92.75,89.38M120.87,196.61l113.69,88.99m-95.43-99.71l92.32,88.99m-80.95-88.99l132.65,88.99M150.51,125.56l115.93,88.99M111.91,114.9l112.49,88.99M111.91,54.58l112.49,88.99m-46.65-88.99l112.49,88.99"/><g><path class="cls-1" d="M255.24,285.59c16.2,0,24.82,8.01,24.82,24.47v11.37c0,16.46-8.62,24.47-24.82,24.47h-20.68v-60.32h20.68Z"/><polygon class="cls-1" points="266.45 214.54 283.16 274.87 271.44 274.87 243.18 274.87 231.46 274.87 248.18 214.54 266.45 214.54"/><polygon class="cls-1" points="244.04 143.57 256.8 192 257.83 192 270.58 143.57 290.23 143.57 290.23 203.89 279.2 203.89 265.67 203.89 248.95 203.89 235.42 203.89 224.39 203.89 224.39 143.57 244.04 143.57"/></g></svg>