<?xml version="1.0" encoding="UTF-8"?><svg id="Layer_1" xmlns="http://www.w3.org/2000/svg" viewBox="0 0 400 400"><defs><style>.cls-1{fill:none;stroke:#000;stroke-miterlimit:10;stroke-width:3px;}</style></defs><g><polygon class="cls-1" points="256.82 282.99 256.82 293.33 238.55 293.33 238.55 343.31 227.17 343.31 227.17 293.33 208.91 293.33 208.91 282.99 256.82 282.99"/><rect class="cls-1" x="227.17" y="211.94" width="11.38" height="60.32"/><polygon class="cls-1" points="219.59 140.96 232.34 189.39 233.38 189.39 246.13 140.96 265.78 140.96 265.78 201.28 254.75 201.28 241.22 201.28 224.5 201.28 210.97 201.28 199.94 201.28 199.94 140.96 219.59 140.96"/></g><path class="cls-1" d="M227.17,343.31l-77.57-71.01m107.22,10.69l-80.25-70.62m32.34,70.62l-59.31-71.01m77.57,60.29l-80.68-71.01m92.05,71.01l-40.35-71.01m40.35,10.69l-57.07-71.01m18.46,60.36l-60.51-71.01m60.51,10.69l-60.51-71.01m126.35,71.01l-60.51-71.01"/><g><path class="cls-1" d="M170.28,211.97c16.2,0,24.82,8.01,24.82,24.47v11.37c0,16.46-8.62,24.47-24.82,24.47h-20.68v-60.32h20.68Z"/><polygon class="cls-1" points="181.48 140.93 198.2 201.25 186.48 201.25 158.22 201.25 146.5 201.25 163.22 140.93 181.48 140.93"/><polygon class="cls-1" points="159.08 69.95 171.83 118.38 172.87 118.38 185.62 69.95 205.27 69.95 205.27 130.27 194.24 130.27 180.71 130.27 163.99 130.27 150.46 130.27 139.43 130.27 139.43 69.95 159.08 69.95"/></g></svg>