<?xml version="1.0" encoding="UTF-8"?><svg id="Layer_1" xmlns="http://www.w3.org/2000/svg" viewBox="0 0 400 400"><defs><style>.cls-1{fill:none;stroke:#000;stroke-miterlimit:10;stroke-width:1.25px;}</style></defs><g><polygon class="cls-1" points="277.3 161.14 277.3 171.48 259.03 171.48 259.03 221.46 247.66 221.46 247.66 171.48 229.39 171.48 229.39 161.14 277.3 161.14"/><rect class="cls-1" x="247.66" y="90.09" width="11.38" height="60.32"/><polygon class="cls-1" points="240.07 19.11 252.83 67.54 253.86 67.54 266.61 19.11 286.26 19.11 286.26 79.43 275.23 79.43 261.7 79.43 244.99 79.43 231.46 79.43 220.43 79.43 220.43 19.11 240.07 19.11"/></g><path class="cls-1" d="M247.66,221.46l-125.57,159.99m155.22-220.31l-132.76,159.99m84.85-159.99l-107.31,159.99m125.57-170.71L118.98,310.4m140.05-159.99l-87.35,159.99m87.35-220.31l-104.07,159.99M220.43,79.43L112.91,240.42M220.43,19.11L112.91,180.1M286.26,19.11l-107.51,160.99"/><g><path class="cls-1" d="M143.76,321.12c16.2,0,24.82,8.01,24.82,24.47v11.37c0,16.46-8.62,24.47-24.82,24.47h-20.68v-60.32h20.68Z"/><polygon class="cls-1" points="154.97 250.08 171.68 310.4 159.97 310.4 131.7 310.4 119.98 310.4 136.7 250.08 154.97 250.08"/><polygon class="cls-1" points="132.56 179.1 145.32 227.53 146.35 227.53 159.1 179.1 178.75 179.1 178.75 239.42 167.72 239.42 154.19 239.42 137.47 239.42 123.94 239.42 112.91 239.42 112.91 179.1 132.56 179.1"/></g></svg>