<?xml version="1.0" encoding="UTF-8"?><svg id="Layer_1" xmlns="http://www.w3.org/2000/svg" viewBox="0 0 400 400"><defs><style>.cls-1{fill:none;stroke:#000;stroke-miterlimit:10;stroke-width:1.25px;}</style></defs><g><polygon class="cls-1" points="167.82 242.44 167.82 252.78 149.55 252.78 149.55 302.76 138.17 302.76 138.17 252.78 119.91 252.78 119.91 242.44 167.82 242.44"/><rect class="cls-1" x="138.17" y="171.39" width="11.38" height="60.32"/><polygon class="cls-1" points="130.59 100.41 143.35 148.84 144.38 148.84 157.13 100.41 176.78 100.41 176.78 160.74 165.75 160.74 152.22 160.74 135.5 160.74 121.97 160.74 110.95 160.74 110.95 100.41 130.59 100.41"/></g><path class="cls-1" d="M138.17,302.76h95.43m-65.78-60.32h87.93m-135.84,0h113.69m-95.43-10.73h92.32m-80.95,0h132.65m-132.65-60.32l115.93,.99m-154.54-11.64h112.49m-112.49-60.32h112.49m-46.65,0h112.49"/><g><path class="cls-1" d="M254.28,242.43c16.2,0,24.82,8.01,24.82,24.47v11.37c0,16.46-8.62,24.47-24.82,24.47h-20.68v-60.32h20.68Z"/><polygon class="cls-1" points="265.48 171.38 282.2 231.7 270.48 231.7 242.22 231.7 230.5 231.7 247.22 171.38 265.48 171.38"/><polygon class="cls-1" points="243.08 100.4 255.83 148.83 256.87 148.83 269.62 100.4 289.27 100.4 289.27 160.72 278.24 160.72 264.71 160.72 247.99 160.72 234.46 160.72 223.43 160.72 223.43 100.4 243.08 100.4"/></g></svg>