<?xml version="1.0" encoding="utf-8"?>
<!-- Generator: Adobe Illustrator 26.4.1, SVG Export Plug-In . SVG Version: 6.00 Build 0)  -->
<svg version="1.1" id="Layer_1" xmlns="http://www.w3.org/2000/svg" xmlns:xlink="http://www.w3.org/1999/xlink" x="0px" y="0px"
	 viewBox="0 0 400 400" style="enable-background:new 0 0 400 400;" xml:space="preserve">
<style type="text/css">
	.st0{fill:none;stroke:#00FF00;stroke-width:1.75;stroke-miterlimit:10;}
	.st1{fill:#FFFFFF;stroke:#00FF00;stroke-width:1.75;stroke-miterlimit:10;}
</style>
<line class="st0" x1="166.8" y1="19.2" x2="166.8" y2="180"/>
<line class="st0" x1="232.7" y1="19.2" x2="232.7" y2="180"/>
<line class="st0" x1="194.1" y1="90.2" x2="190.6" y2="251"/>
<line class="st0" x1="205.4" y1="150.5" x2="225.6" y2="311.3"/>
<line class="st0" x1="194.1" y1="150.5" x2="173.9" y2="311.3"/>
<line class="st0" x1="175.8" y1="161.2" x2="177" y2="322"/>
<line class="st0" x1="223.7" y1="161.2" x2="197.7" y2="322"/>
<line class="st0" x1="194.1" y1="221.5" x2="177" y2="382.4"/>
<g>
	<g>
		<polygon class="st0" points="223.7,161.2 223.7,171.6 205.4,171.6 205.4,221.5 194.1,221.5 194.1,171.6 175.8,171.6 175.8,161.2 
					"/>
		<rect x="194.1" y="90.2" class="st0" width="11.4" height="60.3"/>
		<polygon class="st0" points="186.5,19.2 199.2,67.6 200.3,67.6 213,19.2 232.7,19.2 232.7,79.5 221.6,79.5 208.1,79.5 191.4,79.5 
			177.9,79.5 166.8,79.5 166.8,19.2 		"/>
	</g>
	<g>
		<path class="st1" d="M197.7,322c16.2,0,24.8,8,24.8,24.5v11.4c0,16.5-8.6,24.5-24.8,24.5H177V322L197.7,322L197.7,322z"/>
		<polygon class="st1" points="208.9,251 225.6,311.3 213.9,311.3 185.6,311.3 173.9,311.3 190.6,251 		"/>
		<polygon class="st1" points="186.5,180 199.2,228.4 200.3,228.4 213,180 232.7,180 232.7,240.3 221.6,240.3 208.1,240.3 
			191.4,240.3 177.9,240.3 166.8,240.3 166.8,180 		"/>
	</g>
</g>
</svg>
