<?xml version="1.0" encoding="UTF-8"?><svg id="Layer_1" xmlns="http://www.w3.org/2000/svg" viewBox="0 0 400 400"><defs><style>.cls-1{fill:none;stroke:#000;stroke-miterlimit:10;stroke-width:3px;}</style></defs><g><polygon class="cls-1" points="187.96 242.59 187.96 252.93 169.69 252.93 169.69 302.91 158.31 302.91 158.31 252.93 140.04 252.93 140.04 242.59 187.96 242.59"/><rect class="cls-1" x="158.31" y="171.54" width="11.38" height="60.32"/><polygon class="cls-1" points="150.73 100.57 163.48 149 164.52 149 177.27 100.57 196.92 100.57 196.92 160.89 185.89 160.89 172.36 160.89 155.64 160.89 142.11 160.89 131.08 160.89 131.08 100.57 150.73 100.57"/></g><path class="cls-1" d="M158.31,302.91l55.43,.99m-25.78-61.31l42.75,1.38m-90.66-1.38l63.69,.99m-45.43-11.71l42.32,.99m-30.95-.99l82.65,.99m-82.65-61.31l65.93,.99m-104.54-11.64l72.49,.99m-72.49-61.31l62.49,.99m3.35-.99l62.49,.99"/><g><path class="cls-1" d="M234.42,243.58c16.2,0,24.82,8.01,24.82,24.47v11.37c0,16.46-8.62,24.47-24.82,24.47h-20.68v-60.32h20.68Z"/><polygon class="cls-1" points="245.62 172.53 262.34 232.85 250.62 232.85 222.35 232.85 210.64 232.85 227.35 172.53 245.62 172.53"/><polygon class="cls-1" points="223.22 101.56 235.97 149.98 237 149.98 249.76 101.56 269.41 101.56 269.41 161.88 258.38 161.88 244.85 161.88 228.13 161.88 214.6 161.88 203.57 161.88 203.57 101.56 223.22 101.56"/></g></svg>