<?xml version="1.0" encoding="UTF-8"?><svg id="Layer_1" xmlns="http://www.w3.org/2000/svg" viewBox="0 0 400 400"><defs><style>.cls-1{fill:#fff;}.cls-1,.cls-2{stroke:blue;stroke-miterlimit:10;stroke-width:1.75px;}.cls-2{fill:none;}</style></defs><g><polygon class="cls-2" points="167.82 320.98 167.82 331.32 149.55 331.32 149.55 381.3 138.17 381.3 138.17 331.32 119.91 331.32 119.91 320.98 167.82 320.98"/><rect class="cls-2" x="138.17" y="249.93" width="11.38" height="60.32"/><polygon class="cls-2" points="130.59 178.95 143.35 227.38 144.38 227.38 157.13 178.95 176.78 178.95 176.78 239.27 165.75 239.27 152.22 239.27 135.5 239.27 121.97 239.27 110.95 239.27 110.95 178.95 130.59 178.95"/></g><path class="cls-2" d="M138.17,381.3l95.43-160.01m-65.78,99.69l87.93-160M119.91,320.98l113.69-160.01m-95.43,149.29l92.32-160.01m-80.95,160.01l132.65-160.01m-132.65,99.69l115.93-159.01M110.95,239.27L223.43,79.26m-112.49,99.69L223.43,18.94m-46.65,160.01L289.27,18.94"/><g><path class="cls-1" d="M254.28,160.96c16.2,0,24.82,8.01,24.82,24.47v11.37c0,16.46-8.62,24.47-24.82,24.47h-20.68v-60.32h20.68Z"/><polygon class="cls-1" points="265.48 89.91 282.2 150.24 270.48 150.24 242.22 150.24 230.5 150.24 247.22 89.91 265.48 89.91"/><polygon class="cls-1" points="243.08 18.94 255.83 67.37 256.87 67.37 269.62 18.94 289.27 18.94 289.27 79.26 278.24 79.26 264.71 79.26 247.99 79.26 234.46 79.26 223.43 79.26 223.43 18.94 243.08 18.94"/></g></svg>