<?xml version="1.0" encoding="UTF-8"?><svg id="Layer_1" xmlns="http://www.w3.org/2000/svg" viewBox="0 0 400 400"><defs><style>.cls-1{fill:none;}.cls-1,.cls-2{stroke:#000;stroke-miterlimit:10;stroke-width:1.25px;}.cls-2{fill:#fff;}</style></defs><g><polygon class="cls-1" points="187.96 161.68 187.96 172.02 169.69 172.02 169.69 222 158.31 222 158.31 172.02 140.04 172.02 140.04 161.68 187.96 161.68"/><rect class="cls-1" x="158.31" y="90.63" width="11.38" height="60.32"/><polygon class="cls-1" points="150.73 19.65 163.48 68.08 164.52 68.08 177.27 19.65 196.92 19.65 196.92 79.98 185.89 79.98 172.36 79.98 155.64 79.98 142.11 79.98 131.08 79.98 131.08 19.65 150.73 19.65"/></g><path class="cls-1" d="M158.31,222l55.43,159.99m-25.78-220.31l48.53,160.03m-96.44-160.03l73.69,159.99m-55.43-170.71l52.32,159.99m-40.95-159.99l92.65,159.99M169.69,90.63l57.67,159.99M131.08,79.98l72.49,159.99M131.08,19.65l72.49,159.99m-6.65-159.99l72.49,159.99"/><g><path class="cls-2" d="M234.42,321.67c16.2,0,24.82,8.01,24.82,24.47v11.37c0,16.46-8.62,24.47-24.82,24.47h-20.68v-60.32h20.68Z"/><polygon class="cls-2" points="245.62 250.62 262.34 310.94 250.62 310.94 222.35 310.94 210.64 310.94 227.35 250.62 245.62 250.62"/><polygon class="cls-2" points="223.22 179.64 235.97 228.07 237 228.07 249.76 179.64 269.41 179.64 269.41 239.96 258.38 239.96 244.85 239.96 228.13 239.96 214.6 239.96 203.57 239.96 203.57 179.64 223.22 179.64"/></g></svg>