<?xml version="1.0" encoding="UTF-8"?><svg id="Layer_1" xmlns="http://www.w3.org/2000/svg" viewBox="0 0 400 400"><defs><style>.cls-1{fill:none;stroke:#000;stroke-miterlimit:10;stroke-width:1.25px;}</style></defs><g><polygon class="cls-1" points="257.16 320.59 257.16 330.93 238.89 330.93 238.89 380.91 227.51 380.91 227.51 330.93 209.24 330.93 209.24 320.59 257.16 320.59"/><rect class="cls-1" x="227.51" y="249.54" width="11.38" height="60.32"/><polygon class="cls-1" points="219.93 178.56 232.68 226.99 233.72 226.99 246.47 178.56 266.12 178.56 266.12 238.88 255.09 238.88 241.56 238.88 224.84 238.88 211.31 238.88 200.28 238.88 200.28 178.56 219.93 178.56"/></g><path class="cls-1" d="M227.51,380.91l-77.57-160.01m107.22,99.69l-85.54-160.01m37.62,160.01l-59.31-160.01m77.57,149.29l-80.68-160.01m92.05,160.01l-39.35-160.01m39.35,99.69l-56.07-160.01m17.46,149.36l-57.51-160.01m57.51,99.69L142.77,18.55m123.35,160.01L206.61,18.55"/><g><path class="cls-1" d="M171.62,160.57c16.2,0,24.82,8.01,24.82,24.47v11.37c0,16.46-8.62,24.47-24.82,24.47h-20.68v-60.32h20.68Z"/><polygon class="cls-1" points="182.82 89.53 199.54 149.85 187.82 149.85 159.55 149.85 147.84 149.85 164.55 89.53 182.82 89.53"/><polygon class="cls-1" points="160.42 18.55 173.17 66.98 174.2 66.98 186.96 18.55 206.61 18.55 206.61 78.87 195.58 78.87 182.05 78.87 165.33 78.87 151.8 78.87 140.77 78.87 140.77 18.55 160.42 18.55"/></g></svg>