<?xml version="1.0" encoding="UTF-8"?><svg id="Layer_1" xmlns="http://www.w3.org/2000/svg" viewBox="0 0 400 400"><defs><style>.cls-1{fill:none;stroke:#000;stroke-miterlimit:10;stroke-width:3px;}</style></defs><g><polygon class="cls-1" points="168.21 283.66 168.21 294 149.94 294 149.94 343.98 138.57 343.98 138.57 294 120.3 294 120.3 283.66 168.21 283.66"/><rect class="cls-1" x="138.57" y="212.61" width="11.38" height="60.32"/><polygon class="cls-1" points="130.98 141.64 143.74 190.07 144.77 190.07 157.53 141.64 177.17 141.64 177.17 201.96 166.14 201.96 152.61 201.96 135.9 201.96 122.37 201.96 111.34 201.96 111.34 141.64 130.98 141.64"/></g><path class="cls-1" d="M138.57,343.98l95.43-71.01m-65.78,10.69l92.75-70.62m-140.66,70.62l113.69-71.01m-95.43,60.29l92.32-71.01m-80.95,71.01l132.65-71.01m-132.65,10.69l115.93-71.01m-154.54,60.36l112.49-71.01m-112.49,10.69l112.49-71.01m-46.65,71.01l112.49-71.01"/><g><path class="cls-1" d="M254.68,212.65c16.2,0,24.82,8.01,24.82,24.47v11.37c0,16.46-8.62,24.47-24.82,24.47h-20.68v-60.32h20.68Z"/><polygon class="cls-1" points="265.88 141.6 282.6 201.92 270.88 201.92 242.61 201.92 230.89 201.92 247.61 141.6 265.88 141.6"/><polygon class="cls-1" points="243.47 70.62 256.23 119.05 257.26 119.05 270.01 70.62 289.66 70.62 289.66 130.95 278.63 130.95 265.1 130.95 248.38 130.95 234.86 130.95 223.82 130.95 223.82 70.62 243.47 70.62"/></g></svg>