<?xml version="1.0" encoding="UTF-8"?><svg id="Layer_1" xmlns="http://www.w3.org/2000/svg" viewBox="0 0 400 400"><defs><style>.cls-1{fill:none;stroke:#000;stroke-miterlimit:10;stroke-width:1.25px;}</style></defs><g><polygon class="cls-1" points="187.96 242.59 187.96 252.93 169.69 252.93 169.69 302.91 158.31 302.91 158.31 252.93 140.04 252.93 140.04 242.59 187.96 242.59"/><rect class="cls-1" x="158.31" y="171.54" width="11.38" height="60.32"/><polygon class="cls-1" points="150.73 100.57 163.48 149 164.52 149 177.27 100.57 196.92 100.57 196.92 160.89 185.89 160.89 172.36 160.89 155.64 160.89 142.11 160.89 131.08 160.89 131.08 100.57 150.73 100.57"/></g><path class="cls-1" d="M158.31,302.91h55.43m-25.78-60.32l48.53,.03m-96.44-.03h73.69m-55.43-10.73h52.32m-40.95,0h92.65m-92.65-60.32h57.67m-96.27-10.65h72.49m-72.49-60.32h72.49m-6.65,0h72.49"/><g><path class="cls-1" d="M234.42,242.58c16.2,0,24.82,8.01,24.82,24.47v11.37c0,16.46-8.62,24.47-24.82,24.47h-20.68v-60.32h20.68Z"/><polygon class="cls-1" points="245.62 171.53 262.34 231.85 250.62 231.85 222.35 231.85 210.64 231.85 227.35 171.53 245.62 171.53"/><polygon class="cls-1" points="223.22 100.56 235.97 148.98 237 148.98 249.76 100.56 269.41 100.56 269.41 160.88 258.38 160.88 244.85 160.88 228.13 160.88 214.6 160.88 203.57 160.88 203.57 100.56 223.22 100.56"/></g></svg>