<?xml version="1.0" encoding="UTF-8"?><svg id="Layer_1" xmlns="http://www.w3.org/2000/svg" viewBox="0 0 400 400"><defs><style>.cls-1{fill:none;stroke:#000;stroke-miterlimit:10;stroke-width:3px;}</style></defs><g><polygon class="cls-1" points="308.96 196.36 308.96 206.7 290.69 206.7 290.69 256.68 279.31 256.68 279.31 206.7 261.04 206.7 261.04 196.36 308.96 196.36"/><rect class="cls-1" x="279.31" y="125.31" width="11.38" height="60.32"/><polygon class="cls-1" points="271.73 54.33 284.48 102.76 285.52 102.76 298.27 54.33 317.92 54.33 317.92 114.65 306.89 114.65 293.36 114.65 276.64 114.65 263.11 114.65 252.08 114.65 252.08 54.33 271.73 54.33"/></g><path class="cls-1" d="M279.31,256.68l-184.57,88.99m214.22-149.31l-187.25,89.38m139.34-89.38l-166.31,88.99m184.57-99.71l-187.68,88.99m199.05-88.99l-147.35,88.99M290.69,125.31L126.62,214.3m125.46-99.64L84.57,203.64M252.08,54.33L84.57,143.32M317.92,54.33l-167.51,88.99"/><g><path class="cls-1" d="M115.42,285.35c16.2,0,24.82,8.01,24.82,24.47v11.37c0,16.46-8.62,24.47-24.82,24.47h-20.68v-60.32h20.68Z"/><polygon class="cls-1" points="126.62 214.3 143.34 274.62 131.62 274.62 103.36 274.62 91.64 274.62 108.35 214.3 126.62 214.3"/><polygon class="cls-1" points="104.22 143.32 116.97 191.75 118 191.75 130.76 143.32 150.41 143.32 150.41 203.64 139.38 203.64 125.85 203.64 109.13 203.64 95.6 203.64 84.57 203.64 84.57 143.32 104.22 143.32"/></g></svg>