<?xml version="1.0" encoding="UTF-8"?><svg id="Layer_1" xmlns="http://www.w3.org/2000/svg" viewBox="0 0 400 400"><defs><style>.cls-1{fill:#fff;}.cls-1,.cls-2{stroke:lime;stroke-miterlimit:10;stroke-width:1.75px;}.cls-2{fill:none;}</style></defs><line class="cls-2" x1="166.84" y1="59.2" x2="166.84" y2="139.18"/><line class="cls-2" x1="232.67" y1="59.2" x2="232.67" y2="140.01"/><line class="cls-2" x1="205.44" y1="130.17" x2="208.89" y2="210.99"/><line class="cls-2" x1="194.07" y1="190.49" x2="173.9" y2="271.31"/><line class="cls-2" x1="205.44" y1="190.49" x2="225.61" y2="271.31"/><line class="cls-2" x1="194.07" y1="261.54" x2="177.01" y2="342.35"/><line class="cls-2" x1="175.8" y1="201.22" x2="177.01" y2="282.03"/><line class="cls-2" x1="223.71" y1="201.22" x2="197.69" y2="282.03"/><g><g><polygon class="cls-2" points="223.71 201.22 223.71 211.56 205.44 211.56 205.44 261.54 194.07 261.54 194.07 211.56 175.8 211.56 175.8 201.22 223.71 201.22"/><rect class="cls-2" x="194.07" y="130.17" width="11.38" height="60.32"/><polygon class="cls-2" points="186.48 59.2 199.24 107.63 200.27 107.63 213.03 59.2 232.67 59.2 232.67 119.52 221.64 119.52 208.11 119.52 191.4 119.52 177.87 119.52 166.84 119.52 166.84 59.2 186.48 59.2"/></g><path class="cls-2" d="M194.07,301.54m29.64-60.32-47.91,0,18.27-10.73,11.37,0,0-60.32-38.6-10.65,0-60.32,65.84,0"/><g><path class="cls-1" d="M197.69,282.03c16.2,0,24.82,8.01,24.82,24.47v11.37c0,16.46-8.62,24.47-24.82,24.47h-20.68v-60.32h20.68Z"/><polygon class="cls-1" points="208.89 210.99 225.61 271.31 213.89 271.31 185.62 271.31 173.9 271.31 190.62 210.99 208.89 210.99"/><polygon class="cls-1" points="186.48 140.01 199.24 188.44 200.27 188.44 213.03 140.01 232.67 140.01 232.67 200.33 221.64 200.33 208.11 200.33 191.4 200.33 177.87 200.33 166.84 200.33 166.84 140.01 186.48 140.01"/></g></g></svg>