<?xml version="1.0" encoding="UTF-8"?><svg id="Layer_1" xmlns="http://www.w3.org/2000/svg" viewBox="0 0 400 400"><defs><style>.cls-1{fill:#fff;}.cls-1,.cls-2{stroke:#0fc;stroke-miterlimit:10;stroke-width:1.75px;}.cls-2{fill:none;}</style></defs><g><polygon class="cls-2" points="187.96 201.68 187.96 212.02 169.69 212.02 169.69 262 158.31 262 158.31 212.02 140.04 212.02 140.04 201.68 187.96 201.68"/><rect class="cls-2" x="158.31" y="130.63" width="11.38" height="60.32"/><polygon class="cls-2" points="150.73 59.65 163.48 108.08 164.52 108.08 177.27 59.65 196.92 59.65 196.92 119.98 185.89 119.98 172.36 119.98 155.64 119.98 142.11 119.98 131.08 119.98 131.08 59.65 150.73 59.65"/></g><path class="cls-2" d="M158.31,262l55.43,39.99m-25.78-100.31l48.53,80.03m-96.44-80.03l73.69,79.99m-55.43-90.71l52.32,79.99m-40.95-79.99l92.65,79.99m-92.65-140.31l57.67,79.99m-96.27-90.64l72.49,79.99M131.08,59.65l72.49,79.99m-6.65-79.99l72.49,79.99"/><g><path class="cls-1" d="M234.42,281.67c16.2,0,24.82,8.01,24.82,24.47v11.37c0,16.46-8.62,24.47-24.82,24.47h-20.68v-60.32h20.68Z"/><polygon class="cls-1" points="245.62 210.62 262.34 270.94 250.62 270.94 222.35 270.94 210.64 270.94 227.35 210.62 245.62 210.62"/><polygon class="cls-1" points="223.22 139.64 235.97 188.07 237 188.07 249.76 139.64 269.41 139.64 269.41 199.96 258.38 199.96 244.85 199.96 228.13 199.96 214.6 199.96 203.57 199.96 203.57 139.64 223.22 139.64"/></g></svg>