<?xml version="1.0" encoding="UTF-8"?><svg id="Layer_1" xmlns="http://www.w3.org/2000/svg" viewBox="0 0 400 400"><defs><style>.cls-1{fill:none;stroke:#000;stroke-miterlimit:10;stroke-width:1.25px;}</style></defs><g><g><polygon class="cls-1" points="223.71 161.22 223.71 171.56 205.44 171.56 205.44 221.54 194.07 221.54 194.07 171.56 175.8 171.56 175.8 161.22 223.71 161.22"/><rect class="cls-1" x="194.07" y="90.17" width="11.38" height="60.32"/><polygon class="cls-1" points="186.48 19.2 199.24 67.63 200.27 67.63 213.03 19.2 232.67 19.2 232.67 79.52 221.64 79.52 208.11 79.52 191.4 79.52 177.87 79.52 166.84 79.52 166.84 19.2 186.48 19.2"/></g><path class="cls-1" d="M194.07,301.54m29.64-60.32-47.91,0,18.27-10.73,11.37,0,0-60.32-38.6-10.65,0-60.32,65.84,0"/><g><path class="cls-1" d="M197.69,322.03c16.2,0,24.82,8.01,24.82,24.47v11.37c0,16.46-8.62,24.47-24.82,24.47h-20.68v-60.32h20.68Z"/><polygon class="cls-1" points="208.89 250.99 225.61 311.31 213.89 311.31 185.62 311.31 173.9 311.31 190.62 250.99 208.89 250.99"/><polygon class="cls-1" points="186.48 180.01 199.24 228.44 200.27 228.44 213.03 180.01 232.67 180.01 232.67 240.33 221.64 240.33 208.11 240.33 191.4 240.33 177.87 240.33 166.84 240.33 166.84 180.01 186.48 180.01"/></g></g><line class="cls-1" x1="166.84" y1="19.2" x2="166.84" y2="180.01"/><line class="cls-1" x1="232.67" y1="19.2" x2="232.67" y2="180.01"/><line class="cls-1" x1="194.07" y1="90.17" x2="190.62" y2="250.99"/><line class="cls-1" x1="205.44" y1="150.49" x2="225.61" y2="311.31"/><line class="cls-1" x1="194.07" y1="150.49" x2="173.9" y2="311.31"/><line class="cls-1" x1="175.8" y1="161.22" x2="177.01" y2="322.03"/><line class="cls-1" x1="223.71" y1="161.22" x2="197.69" y2="322.03"/><line class="cls-1" x1="194.07" y1="221.54" x2="177.01" y2="382.35"/></svg>