<?xml version="1.0" encoding="UTF-8"?><svg id="Layer_1" xmlns="http://www.w3.org/2000/svg" viewBox="0 0 400 400"><defs><style>.cls-1{fill:none;stroke:#000;stroke-miterlimit:10;stroke-width:1.25px;}</style></defs><g><polygon class="cls-1" points="257.16 280.59 257.16 290.93 238.89 290.93 238.89 340.91 227.51 340.91 227.51 290.93 209.24 290.93 209.24 280.59 257.16 280.59"/><rect class="cls-1" x="227.51" y="209.54" width="11.38" height="60.32"/><polygon class="cls-1" points="219.93 138.56 232.68 186.99 233.72 186.99 246.47 138.56 266.12 138.56 266.12 198.88 255.09 198.88 241.56 198.88 224.84 198.88 211.31 198.88 200.28 198.88 200.28 138.56 219.93 138.56"/></g><path class="cls-1" d="M227.51,340.91l-77.57-80.01m107.22,19.69l-85.54-80.01m37.62,80.01l-59.31-80.01m77.57,69.29l-80.68-80.01m92.05,80.01l-39.35-80.01m39.35,19.69l-56.07-80.01m17.46,69.36l-57.51-80.01m57.51,19.69l-57.51-80.01m123.35,80.01l-59.51-80.01"/><g><path class="cls-1" d="M171.62,200.57c16.2,0,24.82,8.01,24.82,24.47v11.37c0,16.46-8.62,24.47-24.82,24.47h-20.68v-60.32h20.68Z"/><polygon class="cls-1" points="182.82 129.53 199.54 189.85 187.82 189.85 159.55 189.85 147.84 189.85 164.55 129.53 182.82 129.53"/><polygon class="cls-1" points="160.42 58.55 173.17 106.98 174.2 106.98 186.96 58.55 206.61 58.55 206.61 118.87 195.58 118.87 182.05 118.87 165.33 118.87 151.8 118.87 140.77 118.87 140.77 58.55 160.42 58.55"/></g></svg>