<?xml version="1.0" encoding="UTF-8"?><svg id="Layer_1" xmlns="http://www.w3.org/2000/svg" viewBox="0 0 400 400"><defs><style>.cls-1{fill:none;stroke:#000;stroke-miterlimit:10;stroke-width:3px;}</style></defs><g><polygon class="cls-1" points="307.3 242.05 307.3 252.39 289.03 252.39 289.03 302.37 277.66 302.37 277.66 252.39 259.39 252.39 259.39 242.05 307.3 242.05"/><rect class="cls-1" x="277.66" y="171" width="11.38" height="60.32"/><polygon class="cls-1" points="270.07 100.03 282.83 148.45 283.86 148.45 296.61 100.03 316.26 100.03 316.26 160.35 305.23 160.35 291.7 160.35 274.99 160.35 261.46 160.35 250.43 160.35 250.43 100.03 270.07 100.03"/></g><path class="cls-1" d="M277.66,302.37l-184.57,.99m214.22-61.31l-187.25,1.38m139.34-1.38l-166.31,.99m184.57-11.71l-187.68,.99m199.05-.99l-147.35,.99m147.35-61.31l-164.07,.99m125.46-11.64l-167.51,.99m167.51-61.31l-167.51,.99m233.35-.99l-167.51,.99"/><g><path class="cls-1" d="M113.76,243.04c16.2,0,24.82,8.01,24.82,24.47v11.37c0,16.46-8.62,24.47-24.82,24.47h-20.68v-60.32h20.68Z"/><polygon class="cls-1" points="124.97 171.99 141.68 232.31 129.97 232.31 101.7 232.31 89.98 232.31 106.7 171.99 124.97 171.99"/><polygon class="cls-1" points="102.56 101.01 115.32 149.44 116.35 149.44 129.1 101.01 148.75 101.01 148.75 161.33 137.72 161.33 124.19 161.33 107.47 161.33 93.94 161.33 82.91 161.33 82.91 101.01 102.56 101.01"/></g></svg>