<?xml version="1.0" encoding="UTF-8"?><svg id="Layer_1" xmlns="http://www.w3.org/2000/svg" viewBox="0 0 400 400"><defs><style>.cls-1{fill:none;stroke:#000;stroke-miterlimit:10;stroke-width:3px;}</style></defs><g><polygon class="cls-1" points="187.04 284.33 187.04 294.67 168.77 294.67 168.77 344.65 157.4 344.65 157.4 294.67 139.13 294.67 139.13 284.33 187.04 284.33"/><rect class="cls-1" x="157.4" y="213.28" width="11.38" height="60.32"/><polygon class="cls-1" points="149.81 142.31 162.57 190.74 163.6 190.74 176.35 142.31 196 142.31 196 202.63 184.97 202.63 171.44 202.63 154.73 202.63 141.2 202.63 130.17 202.63 130.17 142.31 149.81 142.31"/></g><path class="cls-1" d="M157.4,344.65l45.43-71.01m-15.78,10.69l42.75-70.62m-90.66,70.62l63.69-71.01m-45.43,60.29l42.32-71.01m-30.95,71.01l82.65-71.01m-82.65,10.69l65.93-71.01m-104.54,60.36l62.49-71.01m-62.49,10.69l62.49-71.01m3.35,71.01l62.49-71.01"/><g><path class="cls-1" d="M223.51,213.32c16.2,0,24.82,8.01,24.82,24.47v11.37c0,16.46-8.62,24.47-24.82,24.47h-20.68v-60.32h20.68Z"/><polygon class="cls-1" points="234.71 142.27 251.42 202.59 239.71 202.59 211.44 202.59 199.72 202.59 216.44 142.27 234.71 142.27"/><polygon class="cls-1" points="212.3 71.29 225.06 119.72 226.09 119.72 238.84 71.29 258.49 71.29 258.49 131.62 247.46 131.62 233.93 131.62 217.21 131.62 203.68 131.62 192.65 131.62 192.65 71.29 212.3 71.29"/></g></svg>