<?xml version="1.0" encoding="UTF-8"?><svg id="Layer_1" xmlns="http://www.w3.org/2000/svg" viewBox="0 0 400 400"><defs><style>.cls-1{fill:#fff;}.cls-1,.cls-2{stroke:red;stroke-miterlimit:10;stroke-width:1.75px;}.cls-2{fill:none;}</style></defs><g><polygon class="cls-2" points="277.3 320.59 277.3 330.93 259.03 330.93 259.03 380.91 247.66 380.91 247.66 330.93 229.39 330.93 229.39 320.59 277.3 320.59"/><rect class="cls-2" x="247.66" y="249.54" width="11.38" height="60.32"/><polygon class="cls-2" points="240.07 178.56 252.83 226.99 253.86 226.99 266.61 178.56 286.26 178.56 286.26 238.88 275.23 238.88 261.7 238.88 244.99 238.88 231.46 238.88 220.43 238.88 220.43 178.56 240.07 178.56"/></g><path class="cls-2" d="M247.66,380.91L122.08,220.9m155.22,99.69L144.54,160.58m84.85,160.01L122.08,160.57m125.57,149.29L118.98,149.85m140.05,160.01l-87.35-160.01m87.35,99.69L154.97,89.53m65.46,149.36L112.91,79.87m107.51,98.69L112.91,19.55m173.35,159.01L178.75,19.55"/><g><path class="cls-1" d="M143.76,160.57c16.2,0,24.82,8.01,24.82,24.47v11.37c0,16.46-8.62,24.47-24.82,24.47h-20.68v-60.32h20.68Z"/><polygon class="cls-1" points="154.97 89.53 171.68 149.85 159.97 149.85 131.7 149.85 119.98 149.85 136.7 89.53 154.97 89.53"/><polygon class="cls-1" points="132.56 18.55 145.32 66.98 146.35 66.98 159.1 18.55 178.75 18.55 178.75 78.87 167.72 78.87 154.19 78.87 137.47 78.87 123.94 78.87 112.91 78.87 112.91 18.55 132.56 18.55"/></g></svg>