<?xml version="1.0" encoding="UTF-8"?><svg id="Layer_1" xmlns="http://www.w3.org/2000/svg" viewBox="0 0 400 400"><defs><style>.cls-1{fill:none;stroke:#000;stroke-miterlimit:10;stroke-width:3px;}</style></defs><g><polygon class="cls-1" points="278.96 196.36 278.96 206.7 260.69 206.7 260.69 256.68 249.31 256.68 249.31 206.7 231.04 206.7 231.04 196.36 278.96 196.36"/><rect class="cls-1" x="249.31" y="125.31" width="11.38" height="60.32"/><polygon class="cls-1" points="241.73 54.33 254.48 102.76 255.52 102.76 268.27 54.33 287.92 54.33 287.92 114.65 276.89 114.65 263.36 114.65 246.64 114.65 233.11 114.65 222.08 114.65 222.08 54.33 241.73 54.33"/></g><path class="cls-1" d="M249.31,256.68l-124.57,88.99m154.22-149.31l-127.25,89.38m79.34-89.38l-106.31,88.99m124.57-99.71l-127.68,88.99m139.05-88.99l-87.35,88.99m87.35-149.31l-104.07,88.99m65.46-99.64l-107.51,88.99M222.08,54.33l-107.51,88.99M287.92,54.33l-107.51,88.99"/><g><path class="cls-1" d="M145.42,285.35c16.2,0,24.82,8.01,24.82,24.47v11.37c0,16.46-8.62,24.47-24.82,24.47h-20.68v-60.32h20.68Z"/><polygon class="cls-1" points="156.62 214.3 173.34 274.62 161.62 274.62 133.36 274.62 121.64 274.62 138.35 214.3 156.62 214.3"/><polygon class="cls-1" points="134.22 143.32 146.97 191.75 148 191.75 160.76 143.32 180.41 143.32 180.41 203.64 169.38 203.64 155.85 203.64 139.13 203.64 125.6 203.64 114.57 203.64 114.57 143.32 134.22 143.32"/></g></svg>