<?xml version="1.0" encoding="UTF-8"?><svg id="Layer_1" xmlns="http://www.w3.org/2000/svg" viewBox="0 0 400 400"><defs><style>.cls-1{fill:none;stroke:#000;stroke-miterlimit:10;stroke-width:3px;}</style></defs><g><polygon class="cls-1" points="253.22 198.59 253.22 208.93 234.95 208.93 234.95 258.91 223.58 258.91 223.58 208.93 205.31 208.93 205.31 198.59 253.22 198.59"/><rect class="cls-1" x="223.58" y="127.54" width="11.38" height="60.32"/><polygon class="cls-1" points="216 56.57 228.75 105 229.78 105 242.54 56.57 262.18 56.57 262.18 116.89 251.15 116.89 237.62 116.89 220.91 116.89 207.38 116.89 196.35 116.89 196.35 56.57 216 56.57"/></g><path class="cls-1" d="M223.58,258.91l-74.57,88.99m104.22-149.31l-77.25,89.38m29.34-89.38l-56.31,88.99m74.57-99.71l-77.68,88.99m89.05-88.99l-37.35,88.99m37.35-149.31l-54.07,88.99m15.46-99.64l-57.51,88.99M196.35,56.57l-57.51,88.99m123.35-88.99l-57.51,88.99"/><g><path class="cls-1" d="M169.69,287.58c16.2,0,24.82,8.01,24.82,24.47v11.37c0,16.46-8.62,24.47-24.82,24.47h-20.68v-60.32h20.68Z"/><polygon class="cls-1" points="180.89 216.53 197.61 276.85 185.89 276.85 157.62 276.85 145.9 276.85 162.62 216.53 180.89 216.53"/><polygon class="cls-1" points="158.48 145.56 171.24 193.98 172.27 193.98 185.02 145.56 204.67 145.56 204.67 205.88 193.64 205.88 180.11 205.88 163.4 205.88 149.87 205.88 138.84 205.88 138.84 145.56 158.48 145.56"/></g></svg>