<?xml version="1.0" encoding="utf-8"?>
<!-- Generator: Adobe Illustrator 26.4.1, SVG Export Plug-In . SVG Version: 6.00 Build 0)  -->
<svg version="1.1" id="Layer_1" xmlns="http://www.w3.org/2000/svg" xmlns:xlink="http://www.w3.org/1999/xlink" x="0px" y="0px"
	 viewBox="0 0 400 400" style="enable-background:new 0 0 400 400;" xml:space="preserve">
<style type="text/css">
	.st0{fill:none;stroke:#00FF00;stroke-width:1.75;stroke-miterlimit:10;}
	.st1{fill:#FFFFFF;stroke:#00FF00;stroke-width:1.75;stroke-miterlimit:10;}
</style>
<line class="st0" x1="166.8" y1="59.2" x2="166.8" y2="139.2"/>
<line class="st0" x1="232.7" y1="59.2" x2="232.7" y2="140"/>
<line class="st0" x1="205.4" y1="130.2" x2="208.9" y2="211"/>
<line class="st0" x1="194.1" y1="190.5" x2="173.9" y2="271.3"/>
<line class="st0" x1="205.4" y1="190.5" x2="225.6" y2="271.3"/>
<line class="st0" x1="194.1" y1="261.5" x2="177" y2="342.4"/>
<line class="st0" x1="175.8" y1="201.2" x2="177" y2="282"/>
<line class="st0" x1="223.7" y1="201.2" x2="197.7" y2="282"/>
<g>
	<g>
		<polygon class="st0" points="223.7,201.2 223.7,211.6 205.4,211.6 205.4,261.5 194.1,261.5 194.1,211.6 175.8,211.6 175.8,201.2 
					"/>
		<rect x="194.1" y="130.2" class="st0" width="11.4" height="60.3"/>
		<polygon class="st0" points="186.5,59.2 199.2,107.6 200.3,107.6 213,59.2 232.7,59.2 232.7,119.5 221.6,119.5 208.1,119.5 
			191.4,119.5 177.9,119.5 166.8,119.5 166.8,59.2 		"/>
	</g>
	<g>
		<path class="st1" d="M197.7,282c16.2,0,24.8,8,24.8,24.5v11.4c0,16.5-8.6,24.5-24.8,24.5H177V282L197.7,282L197.7,282z"/>
		<polygon class="st1" points="208.9,211 225.6,271.3 213.9,271.3 185.6,271.3 173.9,271.3 190.6,211 		"/>
		<polygon class="st1" points="186.5,140 199.2,188.4 200.3,188.4 213,140 232.7,140 232.7,200.3 221.6,200.3 208.1,200.3 
			191.4,200.3 177.9,200.3 166.8,200.3 166.8,140 		"/>
	</g>
</g>
</svg>
