<?xml version="1.0" encoding="UTF-8"?><svg id="Layer_1" xmlns="http://www.w3.org/2000/svg" viewBox="0 0 400 400"><defs><style>.cls-1{fill:none;}.cls-1,.cls-2{stroke:#000;stroke-miterlimit:10;stroke-width:1.25px;}.cls-2{fill:#fff;}</style></defs><g><polygon class="cls-1" points="187.96 321.13 187.96 331.47 169.69 331.47 169.69 381.45 158.31 381.45 158.31 331.47 140.04 331.47 140.04 321.13 187.96 321.13"/><rect class="cls-1" x="158.31" y="250.08" width="11.38" height="60.32"/><polygon class="cls-1" points="150.73 179.1 163.48 227.53 164.52 227.53 177.27 179.1 196.92 179.1 196.92 239.43 185.89 239.43 172.36 239.43 155.64 239.43 142.11 239.43 131.08 239.43 131.08 179.1 150.73 179.1"/></g><path class="cls-1" d="M158.31,381.45l55.43-160.01m-25.78,99.69l48.53-159.97m-96.44,159.97l73.69-160.01m-55.43,149.29l52.32-160.01m-40.95,160.01l92.65-160.01m-92.65,99.69l57.67-160.01m-96.27,149.36L203.57,79.41m-72.49,99.69L203.57,19.09m-6.65,160.01L269.41,19.09"/><g><path class="cls-2" d="M234.42,161.12c16.2,0,24.82,8.01,24.82,24.47v11.37c0,16.46-8.62,24.47-24.82,24.47h-20.68v-60.32h20.68Z"/><polygon class="cls-2" points="245.62 90.07 262.34 150.39 250.62 150.39 222.35 150.39 210.64 150.39 227.35 90.07 245.62 90.07"/><polygon class="cls-2" points="223.22 19.09 235.97 67.52 237 67.52 249.76 19.09 269.41 19.09 269.41 79.41 258.38 79.41 244.85 79.41 228.13 79.41 214.6 79.41 203.57 79.41 203.57 19.09 223.22 19.09"/></g></svg>