<?xml version="1.0" encoding="utf-8"?>
<!-- Generator: Adobe Illustrator 26.4.1, SVG Export Plug-In . SVG Version: 6.00 Build 0)  -->
<svg version="1.1" id="Layer_1" xmlns="http://www.w3.org/2000/svg" xmlns:xlink="http://www.w3.org/1999/xlink" x="0px" y="0px"
	 viewBox="0 0 400 400" style="enable-background:new 0 0 400 400;" xml:space="preserve">
<style type="text/css">
	.st0{fill:none;stroke:#FF00FF;stroke-width:1.75;stroke-miterlimit:10;}
	.st1{fill:#FFFFFF;stroke:#FF00FF;stroke-width:1.75;stroke-miterlimit:10;}
</style>
<g>
	<polygon class="st0" points="224,280.6 224,291 205.7,291 205.7,341 194.3,341 194.3,291 176,291 176,280.6 	"/>
	<rect x="194.3" y="209.6" class="st0" width="11.4" height="60.3"/>
	<polygon class="st0" points="186.7,138.6 199.5,187 200.5,187 213.3,138.6 232.9,138.6 232.9,198.9 221.9,198.9 208.4,198.9 
		191.6,198.9 178.1,198.9 167.1,198.9 167.1,138.6 	"/>
</g>
<line class="st0" x1="194.1" y1="341" x2="177.5" y2="261"/>
<line class="st0" x1="176" y1="280.7" x2="177.5" y2="200.7"/>
<line class="st0" x1="224" y1="280.7" x2="198.2" y2="200.7"/>
<line class="st0" x1="194.1" y1="269.9" x2="174.4" y2="189.9"/>
<line class="st0" x1="205.4" y1="269.9" x2="226.1" y2="189.9"/>
<line class="st0" x1="205.4" y1="209.6" x2="209.4" y2="129.6"/>
<line class="st0" x1="167.1" y1="138.6" x2="167.6" y2="58.6"/>
<line class="st0" x1="232.9" y1="138.6" x2="232.9" y2="58.6"/>
<g>
	<g>
		<path class="st1" d="M197.9,200.6c16.2,0,24.8,8,24.8,24.5v11.4c0,16.5-8.6,24.5-24.8,24.5h-20.7v-60.3L197.9,200.6L197.9,200.6z"
			/>
		<polygon class="st1" points="209.1,129.6 225.9,189.9 214.1,189.9 185.9,189.9 174.1,189.9 190.9,129.6 		"/>
		<polygon class="st1" points="186.7,58.6 199.5,107 200.5,107 213.3,58.6 232.9,58.6 232.9,118.9 221.9,118.9 208.4,118.9 
			191.6,118.9 178.1,118.9 167.1,118.9 167.1,58.6 		"/>
	</g>
</g>
</svg>
