<?xml version="1.0" encoding="UTF-8"?><svg id="Layer_1" xmlns="http://www.w3.org/2000/svg" viewBox="0 0 400 400"><defs><style>.cls-1{fill:#fff;}.cls-1,.cls-2{stroke:red;stroke-miterlimit:10;stroke-width:1.75px;}.cls-2{fill:none;}</style></defs><g><polygon class="cls-2" points="277.3 280.59 277.3 290.93 259.03 290.93 259.03 340.91 247.66 340.91 247.66 290.93 229.39 290.93 229.39 280.59 277.3 280.59"/><rect class="cls-2" x="247.66" y="209.54" width="11.38" height="60.32"/><polygon class="cls-2" points="240.07 138.56 252.83 186.99 253.86 186.99 266.61 138.56 286.26 138.56 286.26 198.88 275.23 198.88 261.7 198.88 244.99 198.88 231.46 198.88 220.43 198.88 220.43 138.56 240.07 138.56"/></g><path class="cls-2" d="M247.66,340.91l-125.57-80.01m155.22,19.69l-132.76-80.01m84.85,80.01l-107.31-80.01m125.57,69.29L118.98,189.85m140.05,80.01l-87.35-80.01m87.35,19.69l-104.07-80.01m65.46,69.36L112.91,119.87m107.51,18.69L112.91,59.55m173.35,79.01L178.75,59.55"/><g><path class="cls-1" d="M143.76,200.57c16.2,0,24.82,8.01,24.82,24.47v11.37c0,16.46-8.62,24.47-24.82,24.47h-20.68v-60.32h20.68Z"/><polygon class="cls-1" points="154.97 129.53 171.68 189.85 159.97 189.85 131.7 189.85 119.98 189.85 136.7 129.53 154.97 129.53"/><polygon class="cls-1" points="132.56 58.55 145.32 106.98 146.35 106.98 159.1 58.55 178.75 58.55 178.75 118.87 167.72 118.87 154.19 118.87 137.47 118.87 123.94 118.87 112.91 118.87 112.91 58.55 132.56 58.55"/></g></svg>