<?xml version="1.0" encoding="UTF-8"?><svg id="Layer_1" xmlns="http://www.w3.org/2000/svg" viewBox="0 0 400 400"><defs><style>.cls-1{fill:none;stroke:#000;stroke-miterlimit:10;stroke-width:3px;}</style></defs><g><polygon class="cls-1" points="167.82 242.44 167.82 252.78 149.55 252.78 149.55 302.76 138.17 302.76 138.17 252.78 119.91 252.78 119.91 242.44 167.82 242.44"/><rect class="cls-1" x="138.17" y="171.39" width="11.38" height="60.32"/><polygon class="cls-1" points="130.59 100.41 143.35 148.84 144.38 148.84 157.13 100.41 176.78 100.41 176.78 160.74 165.75 160.74 152.22 160.74 135.5 160.74 121.97 160.74 110.95 160.74 110.95 100.41 130.59 100.41"/></g><path class="cls-1" d="M138.17,302.76l95.43,.99m-65.78-61.31l92.75,1.38m-140.66-1.38l113.69,.99m-95.43-11.71l92.32,.99m-80.95-.99l132.65,.99m-132.65-61.31l115.93,.99m-154.54-11.64l112.49,.99m-112.49-61.31l112.49,.99m-46.65-.99l112.49,.99"/><g><path class="cls-1" d="M254.28,243.43c16.2,0,24.82,8.01,24.82,24.47v11.37c0,16.46-8.62,24.47-24.82,24.47h-20.68v-60.32h20.68Z"/><polygon class="cls-1" points="265.48 172.38 282.2 232.7 270.48 232.7 242.22 232.7 230.5 232.7 247.22 172.38 265.48 172.38"/><polygon class="cls-1" points="243.08 101.4 255.83 149.83 256.87 149.83 269.62 101.4 289.27 101.4 289.27 161.72 278.24 161.72 264.71 161.72 247.99 161.72 234.46 161.72 223.43 161.72 223.43 101.4 243.08 101.4"/></g></svg>