<?xml version="1.0" encoding="utf-8"?>
<!-- Generator: Adobe Illustrator 26.4.1, SVG Export Plug-In . SVG Version: 6.00 Build 0)  -->
<svg version="1.1" id="Layer_1" xmlns="http://www.w3.org/2000/svg" xmlns:xlink="http://www.w3.org/1999/xlink" x="0px" y="0px"
	 viewBox="0 0 400 400" style="enable-background:new 0 0 400 400;" xml:space="preserve">
<style type="text/css">
	.st0{fill:none;stroke:#FF00FF;stroke-width:1.75;stroke-miterlimit:10;}
	.st1{fill:#FFFFFF;stroke:#FF00FF;stroke-width:1.75;stroke-miterlimit:10;}
</style>
<g>
	<line class="st0" x1="167.3" y1="18.5" x2="167.3" y2="178.6"/>
	<line class="st0" x1="233.2" y1="18.5" x2="232.7" y2="178.6"/>
	<line class="st0" x1="209.4" y1="89.5" x2="205.4" y2="249.5"/>
	<line class="st0" x1="194.1" y1="309.9" x2="174.4" y2="149.9"/>
	<line class="st0" x1="205.4" y1="309.9" x2="226.1" y2="149.9"/>
	<line class="st0" x1="194.1" y1="380.9" x2="177.5" y2="220.9"/>
	<line class="st0" x1="175.8" y1="320.6" x2="177.5" y2="160.6"/>
	<line class="st0" x1="223.7" y1="320.6" x2="198.2" y2="160.6"/>
</g>
<g>
	<g>
		<polygon class="st0" points="223.7,320.6 223.7,330.9 205.4,330.9 205.4,380.9 194.1,380.9 194.1,330.9 175.8,330.9 175.8,320.6 
					"/>
		<rect x="194.1" y="249.5" class="st0" width="11.4" height="60.3"/>
		<polygon class="st0" points="166.8,238.9 166.8,178.6 186.5,178.6 199.2,227 200.3,227 213,178.6 232.7,178.6 232.7,238.9 		"/>
	</g>
	<g>
		<path class="st1" d="M198.2,160.6c16.2,0,24.8,8,24.8,24.5v11.4c0,16.5-8.6,24.5-24.8,24.5h-20.7v-60.3L198.2,160.6L198.2,160.6z"
			/>
		<polygon class="st1" points="209.4,89.5 226.1,149.9 214.4,149.9 186.1,149.9 174.4,149.9 191.1,89.5 		"/>
		<polygon class="st1" points="167.3,78.9 167.3,18.5 187,18.5 199.7,67 200.8,67 213.5,18.5 233.2,18.5 233.2,78.9 		"/>
	</g>
</g>
</svg>
