<?xml version="1.0" encoding="UTF-8"?><svg id="Layer_1" xmlns="http://www.w3.org/2000/svg" viewBox="0 0 400 400"><defs><style>.cls-1{fill:none;}.cls-1,.cls-2{stroke:#000;stroke-miterlimit:10;stroke-width:1.25px;}.cls-2{fill:#fff;}</style></defs><g><polygon class="cls-1" points="257.16 242.05 257.16 252.39 238.89 252.39 238.89 302.37 227.51 302.37 227.51 252.39 209.24 252.39 209.24 242.05 257.16 242.05"/><rect class="cls-1" x="227.51" y="171" width="11.38" height="60.32"/><polygon class="cls-1" points="219.93 100.03 232.68 148.45 233.72 148.45 246.47 100.03 266.12 100.03 266.12 160.35 255.09 160.35 241.56 160.35 224.84 160.35 211.31 160.35 200.28 160.35 200.28 100.03 219.93 100.03"/></g><path class="cls-1" d="M227.51,302.37h-76.57m106.22-60.32h-85.54m37.62,0h-58.31m76.57-10.73h-79.68m91.05,0h-39.35m39.35-60.32h-56.07m17.46-10.65h-57.51m57.51-60.32h-57.51m123.35,0h-57.51"/><g><path class="cls-2" d="M171.62,242.04c16.2,0,24.82,8.01,24.82,24.47v11.37c0,16.46-8.62,24.47-24.82,24.47h-20.68v-60.32h20.68Z"/><polygon class="cls-2" points="182.82 170.99 199.54 231.31 187.82 231.31 159.55 231.31 147.84 231.31 164.55 170.99 182.82 170.99"/><polygon class="cls-2" points="160.42 100.01 173.17 148.44 174.2 148.44 186.96 100.01 206.61 100.01 206.61 160.33 195.58 160.33 182.05 160.33 165.33 160.33 151.8 160.33 140.77 160.33 140.77 100.01 160.42 100.01"/></g></svg>