<?xml version="1.0" encoding="UTF-8"?><svg id="Layer_1" xmlns="http://www.w3.org/2000/svg" viewBox="0 0 400 400"><defs><style>.cls-1{fill:#fff;}.cls-1,.cls-2{stroke:#b5ff00;stroke-miterlimit:10;stroke-width:1.75px;}.cls-2{fill:none;}</style></defs><g><polygon class="cls-2" points="277.3 201.14 277.3 211.48 259.03 211.48 259.03 261.46 247.66 261.46 247.66 211.48 229.39 211.48 229.39 201.14 277.3 201.14"/><rect class="cls-2" x="247.66" y="130.09" width="11.38" height="60.32"/><polygon class="cls-2" points="240.07 59.11 252.83 107.54 253.86 107.54 266.61 59.11 286.26 59.11 286.26 119.43 275.23 119.43 261.7 119.43 244.99 119.43 231.46 119.43 220.43 119.43 220.43 59.11 240.07 59.11"/></g><path class="cls-2" d="M247.66,261.46l-125.57,79.99m155.22-140.31l-132.76,79.99m84.85-79.99l-107.31,79.99m125.57-90.71l-128.68,79.99m140.05-79.99l-87.35,79.99m87.35-140.31l-104.07,79.99m65.46-90.64l-107.51,80.99M220.43,59.11l-107.51,80.99M286.26,59.11l-107.51,80.99"/><g><path class="cls-1" d="M143.76,281.12c16.2,0,24.82,8.01,24.82,24.47v11.37c0,16.46-8.62,24.47-24.82,24.47h-20.68v-60.32h20.68Z"/><polygon class="cls-1" points="154.97 210.08 171.68 270.4 159.97 270.4 131.7 270.4 119.98 270.4 136.7 210.08 154.97 210.08"/><polygon class="cls-1" points="132.56 139.1 145.32 187.53 146.35 187.53 159.1 139.1 178.75 139.1 178.75 199.42 167.72 199.42 154.19 199.42 137.47 199.42 123.94 199.42 112.91 199.42 112.91 139.1 132.56 139.1"/></g></svg>