<?xml version="1.0" encoding="UTF-8"?><svg id="Layer_1" xmlns="http://www.w3.org/2000/svg" viewBox="0 0 400 400"><defs><style>.cls-1{fill:none;}.cls-1,.cls-2{stroke:#000;stroke-miterlimit:10;stroke-width:1.25px;}.cls-2{fill:#fff;}</style></defs><g><polygon class="cls-1" points="187.96 281.13 187.96 291.47 169.69 291.47 169.69 341.45 158.31 341.45 158.31 291.47 140.04 291.47 140.04 281.13 187.96 281.13"/><rect class="cls-1" x="158.31" y="210.08" width="11.38" height="60.32"/><polygon class="cls-1" points="150.73 139.1 163.48 187.53 164.52 187.53 177.27 139.1 196.92 139.1 196.92 199.43 185.89 199.43 172.36 199.43 155.64 199.43 142.11 199.43 131.08 199.43 131.08 139.1 150.73 139.1"/></g><path class="cls-1" d="M158.31,341.45l55.43-80.01m-25.78,19.69l48.53-79.97m-96.44,79.97l73.69-80.01m-55.43,69.29l52.32-80.01m-40.95,80.01l92.65-80.01m-92.65,19.69l57.67-80.01m-96.27,69.36l72.49-80.01m-72.49,19.69L203.57,59.09m-6.65,80.01l72.49-80.01"/><g><path class="cls-2" d="M234.42,201.12c16.2,0,24.82,8.01,24.82,24.47v11.37c0,16.46-8.62,24.47-24.82,24.47h-20.68v-60.32h20.68Z"/><polygon class="cls-2" points="245.62 130.07 262.34 190.39 250.62 190.39 222.35 190.39 210.64 190.39 227.35 130.07 245.62 130.07"/><polygon class="cls-2" points="223.22 59.09 235.97 107.52 237 107.52 249.76 59.09 269.41 59.09 269.41 119.41 258.38 119.41 244.85 119.41 228.13 119.41 214.6 119.41 203.57 119.41 203.57 59.09 223.22 59.09"/></g></svg>