<?xml version="1.0" encoding="UTF-8"?><svg id="Layer_1" xmlns="http://www.w3.org/2000/svg" viewBox="0 0 400 400"><defs><style>.cls-1{fill:none;stroke:#000;stroke-miterlimit:10;stroke-width:3px;}</style></defs><g><polygon class="cls-1" points="138.78 196.61 138.78 206.95 120.51 206.95 120.51 256.93 109.14 256.93 109.14 206.95 90.87 206.95 90.87 196.61 138.78 196.61"/><rect class="cls-1" x="109.14" y="125.56" width="11.38" height="60.32"/><polygon class="cls-1" points="101.55 54.58 114.31 103.01 115.34 103.01 128.09 54.58 147.74 54.58 147.74 114.9 136.71 114.9 123.18 114.9 106.47 114.9 92.94 114.9 81.91 114.9 81.91 54.58 101.55 54.58"/></g><path class="cls-1" d="M109.14,256.93l155.43,88.99m-125.78-149.31l152.75,89.38M90.87,196.61l173.69,88.99M109.14,185.88l152.32,88.99M120.51,185.88l192.65,88.99M120.51,125.56l175.93,88.99M81.91,114.9l172.49,88.99M81.91,54.58l172.49,88.99M147.74,54.58l172.49,88.99"/><g><path class="cls-1" d="M285.24,285.59c16.2,0,24.82,8.01,24.82,24.47v11.37c0,16.46-8.62,24.47-24.82,24.47h-20.68v-60.32h20.68Z"/><polygon class="cls-1" points="296.45 214.54 313.16 274.87 301.44 274.87 273.18 274.87 261.46 274.87 278.18 214.54 296.45 214.54"/><polygon class="cls-1" points="274.04 143.57 286.8 192 287.83 192 300.58 143.57 320.23 143.57 320.23 203.89 309.2 203.89 295.67 203.89 278.95 203.89 265.42 203.89 254.39 203.89 254.39 143.57 274.04 143.57"/></g></svg>