<?xml version="1.0" encoding="UTF-8"?><svg id="Layer_1" xmlns="http://www.w3.org/2000/svg" viewBox="0 0 400 400"><defs><style>.cls-1{fill:none;stroke:#000;stroke-miterlimit:10;stroke-width:3px;}</style></defs><g><polygon class="cls-1" points="310.21 284.9 310.21 295.24 291.94 295.24 291.94 345.22 280.57 345.22 280.57 295.24 262.3 295.24 262.3 284.9 310.21 284.9"/><rect class="cls-1" x="280.57" y="213.85" width="11.38" height="60.32"/><polygon class="cls-1" points="272.98 142.88 285.74 191.31 286.77 191.31 299.53 142.88 319.17 142.88 319.17 203.2 308.14 203.2 294.61 203.2 277.9 203.2 264.37 203.2 253.34 203.2 253.34 142.88 272.98 142.88"/></g><path class="cls-1" d="M280.57,345.22l-186.57-71.01m216.22,10.69L120.96,214.28m141.34,70.62L93.99,213.89m186.57,60.29L90.89,203.16m201.05,71.01l-149.35-71.01m149.35,10.69L125.88,142.84m127.46,60.36L83.83,132.19m169.51,10.69L83.83,71.87m235.35,71.01L149.66,71.87"/><g><path class="cls-1" d="M113.68,213.89c16.2,0,24.82,8.01,24.82,24.47v11.37c0,16.46-8.62,24.47-24.82,24.47h-20.68v-60.32h20.68Z"/><polygon class="cls-1" points="124.88 142.84 141.6 203.16 129.88 203.16 101.61 203.16 89.89 203.16 106.61 142.84 124.88 142.84"/><polygon class="cls-1" points="102.47 71.87 115.23 120.29 116.26 120.29 129.01 71.87 148.66 71.87 148.66 132.19 137.63 132.19 124.1 132.19 107.38 132.19 93.86 132.19 82.83 132.19 82.83 71.87 102.47 71.87"/></g></svg>