<?xml version="1.0" encoding="UTF-8"?><svg id="Layer_1" xmlns="http://www.w3.org/2000/svg" viewBox="0 0 400 400"><defs><style>.cls-1{fill:none;stroke:#000;stroke-miterlimit:10;stroke-width:3px;}</style></defs><g><polygon class="cls-1" points="222.71 196.59 222.71 206.93 204.44 206.93 204.44 256.91 193.07 256.91 193.07 206.93 174.8 206.93 174.8 196.59 222.71 196.59"/><rect class="cls-1" x="193.07" y="125.54" width="11.38" height="60.32"/><polygon class="cls-1" points="185.48 54.57 198.24 103 199.27 103 212.03 54.57 231.67 54.57 231.67 114.89 220.64 114.89 207.11 114.89 190.4 114.89 176.87 114.89 165.84 114.89 165.84 54.57 185.48 54.57"/></g><path class="cls-1" d="M193.07,256.91l-14.57,88.99m44.22-149.31l-17.25,89.38m-30.66-89.38l3.69,88.99m14.57-99.71l-17.68,88.99m29.05-88.99l22.65,88.99m-22.65-149.31l5.93,88.99m-44.54-99.64l2.49,88.99m-2.49-149.31l2.49,88.99m63.35-88.99l2.49,88.99"/><g><path class="cls-1" d="M199.18,285.58c16.2,0,24.82,8.01,24.82,24.47v11.37c0,16.46-8.62,24.47-24.82,24.47h-20.68v-60.32h20.68Z"/><polygon class="cls-1" points="210.38 214.53 227.1 274.85 215.38 274.85 187.11 274.85 175.39 274.85 192.11 214.53 210.38 214.53"/><polygon class="cls-1" points="187.97 143.56 200.73 191.98 201.76 191.98 214.51 143.56 234.16 143.56 234.16 203.88 223.13 203.88 209.6 203.88 192.88 203.88 179.36 203.88 168.33 203.88 168.33 143.56 187.97 143.56"/></g></svg>