<?xml version="1.0" encoding="UTF-8"?><svg id="Layer_1" xmlns="http://www.w3.org/2000/svg" viewBox="0 0 400 400"><defs><style>.cls-1{fill:none;stroke:#000;stroke-miterlimit:10;stroke-width:3px;}</style></defs><g><polygon class="cls-1" points="280.21 284.9 280.21 295.24 261.94 295.24 261.94 345.22 250.57 345.22 250.57 295.24 232.3 295.24 232.3 284.9 280.21 284.9"/><rect class="cls-1" x="250.57" y="213.85" width="11.38" height="60.32"/><polygon class="cls-1" points="242.98 142.88 255.74 191.31 256.77 191.31 269.53 142.88 289.17 142.88 289.17 203.2 278.14 203.2 264.61 203.2 247.9 203.2 234.37 203.2 223.34 203.2 223.34 142.88 242.98 142.88"/></g><path class="cls-1" d="M250.57,345.22l-126.57-71.01m156.22,10.69l-129.25-70.62m81.34,70.62l-108.31-71.01m126.57,60.29L120.89,203.16m141.05,71.01l-89.35-71.01m89.35,10.69l-106.07-71.01m67.46,60.36l-109.51-71.01m109.51,10.69L113.83,71.87m175.35,71.01l-109.51-71.01"/><g><path class="cls-1" d="M143.68,213.89c16.2,0,24.82,8.01,24.82,24.47v11.37c0,16.46-8.62,24.47-24.82,24.47h-20.68v-60.32h20.68Z"/><polygon class="cls-1" points="154.88 142.84 171.6 203.16 159.88 203.16 131.61 203.16 119.89 203.16 136.61 142.84 154.88 142.84"/><polygon class="cls-1" points="132.47 71.87 145.23 120.29 146.26 120.29 159.01 71.87 178.66 71.87 178.66 132.19 167.63 132.19 154.1 132.19 137.38 132.19 123.86 132.19 112.83 132.19 112.83 71.87 132.47 71.87"/></g></svg>