<?xml version="1.0" encoding="UTF-8"?><svg id="Layer_1" xmlns="http://www.w3.org/2000/svg" viewBox="0 0 400 400"><defs><style>.cls-1{fill:none;stroke:#000;stroke-miterlimit:10;stroke-width:3px;}</style></defs><g><polygon class="cls-1" points="223.71 242.13 223.71 252.48 205.44 252.48 205.44 302.46 194.07 302.46 194.07 252.48 175.8 252.48 175.8 242.13 223.71 242.13"/><rect class="cls-1" x="194.07" y="171.09" width="11.38" height="60.32"/><polygon class="cls-1" points="186.48 100.11 199.24 148.54 200.27 148.54 213.03 100.11 232.67 100.11 232.67 160.43 221.64 160.43 208.11 160.43 191.4 160.43 177.87 160.43 166.84 160.43 166.84 100.11 186.48 100.11"/></g><path class="cls-1" d="M194.07,302.46m29.64-60.32-47.91,0,18.27-10.73,11.37,0,0-60.32-38.6-10.65,0-60.32,65.84,0"/><g><path class="cls-1" d="M198.18,243.12c16.2,0,24.82,8.01,24.82,24.47v11.37c0,16.46-8.62,24.47-24.82,24.47h-20.68v-60.32h20.68Z"/><polygon class="cls-1" points="209.38 172.07 226.1 232.39 214.38 232.39 186.11 232.39 174.39 232.39 191.11 172.07 209.38 172.07"/><polygon class="cls-1" points="186.97 101.1 199.73 149.53 200.76 149.53 213.51 101.1 233.16 101.1 233.16 161.42 222.13 161.42 208.6 161.42 191.88 161.42 178.36 161.42 167.33 161.42 167.33 101.1 186.97 101.1"/></g></svg>