<?xml version="1.0" encoding="UTF-8"?><svg id="Layer_1" xmlns="http://www.w3.org/2000/svg" viewBox="0 0 400 400"><defs><style>.cls-1{fill:none;stroke:#000;stroke-miterlimit:10;stroke-width:3px;}</style></defs><g><polygon class="cls-1" points="193.43 196.59 193.43 206.93 175.16 206.93 175.16 256.91 163.79 256.91 163.79 206.93 145.52 206.93 145.52 196.59 193.43 196.59"/><rect class="cls-1" x="163.79" y="125.54" width="11.38" height="60.32"/><polygon class="cls-1" points="156.21 54.57 168.96 103 169.99 103 182.75 54.57 202.39 54.57 202.39 114.89 191.36 114.89 177.84 114.89 161.12 114.89 147.59 114.89 136.56 114.89 136.56 54.57 156.21 54.57"/></g><path class="cls-1" d="M163.79,256.91l45.43,88.99m-15.78-149.31l42.75,89.38m-90.66-89.38l63.69,88.99m-45.43-99.71l42.32,88.99m-30.95-88.99l82.65,88.99M175.16,125.54l65.93,88.99m-104.54-99.64l62.49,88.99M136.56,54.57l62.49,88.99m3.35-88.99l62.49,88.99"/><g><path class="cls-1" d="M229.9,285.58c16.2,0,24.82,8.01,24.82,24.47v11.37c0,16.46-8.62,24.47-24.82,24.47h-20.68v-60.32h20.68Z"/><polygon class="cls-1" points="241.1 214.53 257.82 274.85 246.1 274.85 217.83 274.85 206.11 274.85 222.83 214.53 241.1 214.53"/><polygon class="cls-1" points="218.69 143.56 231.45 191.98 232.48 191.98 245.24 143.56 264.88 143.56 264.88 203.88 253.85 203.88 240.32 203.88 223.61 203.88 210.08 203.88 199.05 203.88 199.05 143.56 218.69 143.56"/></g></svg>