<?xml version="1.0" encoding="UTF-8"?><svg id="Layer_1" xmlns="http://www.w3.org/2000/svg" viewBox="0 0 400 400"><defs><style>.cls-1{fill:#fff;}.cls-1,.cls-2{stroke:#f0f;stroke-miterlimit:10;stroke-width:1.75px;}.cls-2{fill:none;}</style></defs><line class="cls-2" x1="167.33" y1="18.63" x2="167.33" y2="178.65"/><line class="cls-2" x1="233.16" y1="18.63" x2="232.67" y2="178.65"/><line class="cls-2" x1="209.38" y1="89.61" x2="205.44" y2="249.62"/><line class="cls-2" x1="194.07" y1="309.94" x2="174.39" y2="149.93"/><line class="cls-2" x1="205.44" y1="309.94" x2="226.1" y2="149.93"/><line class="cls-2" x1="194.07" y1="380.99" x2="177.49" y2="220.98"/><line class="cls-2" x1="175.8" y1="320.67" x2="177.49" y2="160.66"/><line class="cls-2" x1="223.71" y1="320.67" x2="198.18" y2="160.66"/><g><g><polygon class="cls-2" points="223.71 320.67 223.71 331.01 205.44 331.01 205.44 380.99 194.07 380.99 194.07 331.01 175.8 331.01 175.8 320.67 223.71 320.67"/><rect class="cls-2" x="194.07" y="249.62" width="11.38" height="60.32"/><polygon class="cls-2" points="186.48 178.65 199.24 227.08 200.27 227.08 213.03 178.65 232.67 178.65 232.67 238.97 221.64 238.97 208.11 238.97 191.4 238.97 177.87 238.97 166.84 238.97 166.84 178.65 186.48 178.65"/></g><path class="cls-2" d="M194.07,300.99m29.64-60.32-47.91,0,18.27-10.73,11.37,0,0-60.32-38.6-10.65,0-60.32,65.84,0"/><g><path class="cls-1" d="M198.18,160.66c16.2,0,24.82,8.01,24.82,24.47v11.37c0,16.46-8.62,24.47-24.82,24.47h-20.68v-60.32h20.68Z"/><polygon class="cls-1" points="209.38 89.61 226.1 149.93 214.38 149.93 186.11 149.93 174.39 149.93 191.11 89.61 209.38 89.61"/><polygon class="cls-1" points="186.97 18.63 199.73 67.06 200.76 67.06 213.51 18.63 233.16 18.63 233.16 78.96 222.13 78.96 208.6 78.96 191.88 78.96 178.36 78.96 167.33 78.96 167.33 18.63 186.97 18.63"/></g></g></svg>