<?xml version="1.0" encoding="UTF-8"?><svg id="Layer_1" xmlns="http://www.w3.org/2000/svg" viewBox="0 0 400 400"><defs><style>.cls-1{fill:none;stroke:#000;stroke-miterlimit:10;stroke-width:3px;}</style></defs><g><polygon class="cls-1" points="257.16 242.05 257.16 252.39 238.89 252.39 238.89 302.37 227.51 302.37 227.51 252.39 209.24 252.39 209.24 242.05 257.16 242.05"/><rect class="cls-1" x="227.51" y="171" width="11.38" height="60.32"/><polygon class="cls-1" points="219.93 100.03 232.68 148.45 233.72 148.45 246.47 100.03 266.12 100.03 266.12 160.35 255.09 160.35 241.56 160.35 224.84 160.35 211.31 160.35 200.28 160.35 200.28 100.03 219.93 100.03"/></g><path class="cls-1" d="M227.51,302.37l-74.57,.99m104.22-61.31l-77.25,1.38m29.34-1.38l-56.31,.99m74.57-11.71l-77.68,.99m89.05-.99l-37.35,.99m37.35-61.31l-54.07,.99m15.46-11.64l-57.51,.99m57.51-61.31l-57.51,.99m123.35-.99l-57.51,.99"/><g><path class="cls-1" d="M171.62,243.04c16.2,0,24.82,8.01,24.82,24.47v11.37c0,16.46-8.62,24.47-24.82,24.47h-20.68v-60.32h20.68Z"/><polygon class="cls-1" points="182.82 171.99 199.54 232.31 187.82 232.31 159.55 232.31 147.84 232.31 164.55 171.99 182.82 171.99"/><polygon class="cls-1" points="160.42 101.01 173.17 149.44 174.2 149.44 186.96 101.01 206.61 101.01 206.61 161.33 195.58 161.33 182.05 161.33 165.33 161.33 151.8 161.33 140.77 161.33 140.77 101.01 160.42 101.01"/></g></svg>