<?xml version="1.0" encoding="UTF-8"?><svg id="Layer_1" xmlns="http://www.w3.org/2000/svg" viewBox="0 0 400 400"><defs><style>.cls-1{fill:none;stroke:#000;stroke-miterlimit:10;stroke-width:1.25px;}</style></defs><g><polygon class="cls-1" points="277.3 242.05 277.3 252.39 259.03 252.39 259.03 302.37 247.66 302.37 247.66 252.39 229.39 252.39 229.39 242.05 277.3 242.05"/><rect class="cls-1" x="247.66" y="171" width="11.38" height="60.32"/><polygon class="cls-1" points="240.07 100.03 252.83 148.45 253.86 148.45 266.61 100.03 286.26 100.03 286.26 160.35 275.23 160.35 261.7 160.35 244.99 160.35 231.46 160.35 220.43 160.35 220.43 100.03 240.07 100.03"/></g><path class="cls-1" d="M247.66,302.37H122.08m155.22-60.32H144.54m84.85,0H122.08m125.57-10.73H118.98m140.05,0h-87.35m87.35-60.32h-104.07m65.46-10.65l-107.51,.99m107.51-61.31l-107.51,.99m173.35-.99l-107.51,.99"/><g><path class="cls-1" d="M143.76,242.04c16.2,0,24.82,8.01,24.82,24.47v11.37c0,16.46-8.62,24.47-24.82,24.47h-20.68v-60.32h20.68Z"/><polygon class="cls-1" points="154.97 170.99 171.68 231.31 159.97 231.31 131.7 231.31 119.98 231.31 136.7 170.99 154.97 170.99"/><polygon class="cls-1" points="132.56 100.01 145.32 148.44 146.35 148.44 159.1 100.01 178.75 100.01 178.75 160.33 167.72 160.33 154.19 160.33 137.47 160.33 123.94 160.33 112.91 160.33 112.91 100.01 132.56 100.01"/></g></svg>