<?xml version="1.0" encoding="UTF-8"?><svg id="Layer_1" xmlns="http://www.w3.org/2000/svg" viewBox="0 0 400 400"><defs><style>.cls-1{fill:none;stroke:#000;stroke-miterlimit:10;stroke-width:3px;}</style></defs><g><polygon class="cls-1" points="277.3 242.05 277.3 252.39 259.03 252.39 259.03 302.37 247.66 302.37 247.66 252.39 229.39 252.39 229.39 242.05 277.3 242.05"/><rect class="cls-1" x="247.66" y="171" width="11.38" height="60.32"/><polygon class="cls-1" points="240.07 100.03 252.83 148.45 253.86 148.45 266.61 100.03 286.26 100.03 286.26 160.35 275.23 160.35 261.7 160.35 244.99 160.35 231.46 160.35 220.43 160.35 220.43 100.03 240.07 100.03"/></g><path class="cls-1" d="M247.66,302.37l-124.57,.99m154.22-61.31l-127.25,1.38m79.34-1.38l-106.31,.99m124.57-11.71l-127.68,.99m139.05-.99l-87.35,.99m87.35-61.31l-104.07,.99m65.46-11.64l-107.51,.99m107.51-61.31l-107.51,.99m173.35-.99l-107.51,.99"/><g><path class="cls-1" d="M143.76,243.04c16.2,0,24.82,8.01,24.82,24.47v11.37c0,16.46-8.62,24.47-24.82,24.47h-20.68v-60.32h20.68Z"/><polygon class="cls-1" points="154.97 171.99 171.68 232.31 159.97 232.31 131.7 232.31 119.98 232.31 136.7 171.99 154.97 171.99"/><polygon class="cls-1" points="132.56 101.01 145.32 149.44 146.35 149.44 159.1 101.01 178.75 101.01 178.75 161.33 167.72 161.33 154.19 161.33 137.47 161.33 123.94 161.33 112.91 161.33 112.91 101.01 132.56 101.01"/></g></svg>