<?xml version="1.0" encoding="UTF-8"?><svg id="Layer_1" xmlns="http://www.w3.org/2000/svg" viewBox="0 0 400 400"><defs><style>.cls-1{fill:none;}.cls-1,.cls-2{stroke:#000;stroke-miterlimit:10;stroke-width:1.25px;}.cls-2{fill:#fff;}</style></defs><g><polygon class="cls-1" points="167.82 161.53 167.82 171.87 149.55 171.87 149.55 221.85 138.17 221.85 138.17 171.87 119.91 171.87 119.91 161.53 167.82 161.53"/><rect class="cls-1" x="138.17" y="90.48" width="11.38" height="60.32"/><polygon class="cls-1" points="130.59 19.5 143.35 67.93 144.38 67.93 157.13 19.5 176.78 19.5 176.78 79.82 165.75 79.82 152.22 79.82 135.5 79.82 121.97 79.82 110.95 79.82 110.95 19.5 130.59 19.5"/></g><path class="cls-1" d="M138.17,221.85l95.43,159.99m-65.78-220.31l87.93,160M119.91,161.53l113.69,159.99m-95.43-170.71l92.32,159.99m-80.95-159.99l132.65,159.99M149.55,90.48l115.93,160.99M110.95,79.82l112.49,159.99M110.95,19.5l112.49,159.99M176.78,19.5l112.49,159.99"/><g><path class="cls-2" d="M254.28,321.51c16.2,0,24.82,8.01,24.82,24.47v11.37c0,16.46-8.62,24.47-24.82,24.47h-20.68v-60.32h20.68Z"/><polygon class="cls-2" points="265.48 250.46 282.2 310.79 270.48 310.79 242.22 310.79 230.5 310.79 247.22 250.46 265.48 250.46"/><polygon class="cls-2" points="243.08 179.49 255.83 227.92 256.87 227.92 269.62 179.49 289.27 179.49 289.27 239.81 278.24 239.81 264.71 239.81 247.99 239.81 234.46 239.81 223.43 239.81 223.43 179.49 243.08 179.49"/></g></svg>