<?xml version="1.0" encoding="UTF-8"?><svg id="Layer_1" xmlns="http://www.w3.org/2000/svg" viewBox="0 0 400 400"><defs><style>.cls-1{fill:#fff;}.cls-1,.cls-2{stroke:#b5ff00;stroke-miterlimit:10;stroke-width:1.75px;}.cls-2{fill:none;}</style></defs><g><polygon class="cls-2" points="257.16 201.14 257.16 211.48 238.89 211.48 238.89 261.46 227.51 261.46 227.51 211.48 209.24 211.48 209.24 201.14 257.16 201.14"/><rect class="cls-2" x="227.51" y="130.09" width="11.38" height="60.32"/><polygon class="cls-2" points="219.93 59.11 232.68 107.54 233.72 107.54 246.47 59.11 266.12 59.11 266.12 119.43 255.09 119.43 241.56 119.43 224.84 119.43 211.31 119.43 200.28 119.43 200.28 59.11 219.93 59.11"/></g><path class="cls-2" d="M227.51,261.46l-76.57,79.99m106.22-140.31l-85.54,79.99m37.62-79.99l-58.31,79.99m76.57-90.71l-79.68,79.99m91.05-79.99l-39.35,79.99m39.35-140.31l-56.07,79.99m17.46-90.64l-59.51,79.99M200.28,59.11l-59.51,79.99m125.35-79.99l-59.51,79.99"/><g><path class="cls-1" d="M171.62,281.12c16.2,0,24.82,8.01,24.82,24.47v11.37c0,16.46-8.62,24.47-24.82,24.47h-20.68v-60.32h20.68Z"/><polygon class="cls-1" points="182.82 210.08 199.54 270.4 187.82 270.4 159.55 270.4 147.84 270.4 164.55 210.08 182.82 210.08"/><polygon class="cls-1" points="160.42 139.1 173.17 187.53 174.2 187.53 186.96 139.1 206.61 139.1 206.61 199.42 195.58 199.42 182.05 199.42 165.33 199.42 151.8 199.42 140.77 199.42 140.77 139.1 160.42 139.1"/></g></svg>