<?xml version="1.0" encoding="UTF-8"?><svg id="Layer_1" xmlns="http://www.w3.org/2000/svg" viewBox="0 0 400 400"><defs><style>.cls-1{fill:none;}.cls-1,.cls-2{stroke:#000;stroke-miterlimit:10;stroke-width:1.25px;}.cls-2{fill:#fff;}</style></defs><g><polygon class="cls-1" points="223.87 242.13 223.87 252.48 205.61 252.48 205.61 302.46 194.23 302.46 194.23 252.48 175.96 252.48 175.96 242.13 223.87 242.13"/><rect class="cls-1" x="194.23" y="171.09" width="11.38" height="60.32"/><polygon class="cls-1" points="186.65 100.11 199.4 148.54 200.44 148.54 213.19 100.11 232.84 100.11 232.84 160.43 221.81 160.43 208.28 160.43 191.56 160.43 178.03 160.43 167 160.43 167 100.11 186.65 100.11"/></g><path class="cls-1" d="M194.23,302.46m29.64-60.32-47.91,0,18.27-10.73,11.37,0,0-60.32-38.6-10.65,0-60.32,65.84,0"/><g><path class="cls-2" d="M197.85,242.12c16.2,0,24.82,8.01,24.82,24.47v11.37c0,16.46-8.62,24.47-24.82,24.47h-20.68v-60.32h20.68Z"/><polygon class="cls-2" points="209.05 171.07 225.77 231.39 214.05 231.39 185.79 231.39 174.07 231.39 190.78 171.07 209.05 171.07"/><polygon class="cls-2" points="186.65 100.1 199.4 148.53 200.44 148.53 213.19 100.1 232.84 100.1 232.84 160.42 221.81 160.42 208.28 160.42 191.56 160.42 178.03 160.42 167 160.42 167 100.1 186.65 100.1"/></g></svg>