<?xml version="1.0" encoding="UTF-8"?><svg id="Layer_1" xmlns="http://www.w3.org/2000/svg" viewBox="0 0 400 400"><defs><style>.cls-1{fill:none;stroke:#000;stroke-miterlimit:10;stroke-width:3px;}</style></defs><g><polygon class="cls-1" points="224.46 282.59 224.46 292.93 206.19 292.93 206.19 342.91 194.81 342.91 194.81 292.93 176.54 292.93 176.54 282.59 224.46 282.59"/><rect class="cls-1" x="194.81" y="211.54" width="11.38" height="60.32"/><polygon class="cls-1" points="187.23 140.57 199.98 189 201.02 189 213.77 140.57 233.42 140.57 233.42 200.89 222.39 200.89 208.86 200.89 192.14 200.89 178.61 200.89 167.58 200.89 167.58 140.57 187.23 140.57"/></g><path class="cls-1" d="M194.81,342.91l-17.57-71.01m47.22,10.69l-20.25-70.62m-27.66,70.62l.69-71.01m17.57,60.29l-20.68-71.01m32.05,71.01l19.65-71.01m-19.65,10.69l2.93-71.01m-41.54,60.36l-.51-71.01m.51,10.69l-.51-71.01m66.35,71.01l-.51-71.01"/><g><path class="cls-1" d="M197.92,211.58c16.2,0,24.82,8.01,24.82,24.47v11.37c0,16.46-8.62,24.47-24.82,24.47h-20.68v-60.32h20.68Z"/><polygon class="cls-1" points="209.12 140.53 225.84 200.85 214.12 200.85 185.86 200.85 174.14 200.85 190.85 140.53 209.12 140.53"/><polygon class="cls-1" points="186.72 69.56 199.47 117.98 200.5 117.98 213.26 69.56 232.91 69.56 232.91 129.88 221.88 129.88 208.35 129.88 191.63 129.88 178.1 129.88 167.07 129.88 167.07 69.56 186.72 69.56"/></g></svg>