<?xml version="1.0" encoding="UTF-8"?><svg id="Layer_1" xmlns="http://www.w3.org/2000/svg" viewBox="0 0 400 400"><defs><style>.cls-1{fill:#fff;}.cls-1,.cls-2{stroke:#000;stroke-miterlimit:10;stroke-width:1.75px;}.cls-2{fill:none;}</style></defs><g><polygon class="cls-2" points="223.96 240.85 223.96 251.19 205.69 251.19 205.69 301.17 194.31 301.17 194.31 251.19 176.04 251.19 176.04 240.85 223.96 240.85"/><rect class="cls-2" x="194.31" y="169.8" width="11.38" height="60.32"/><polygon class="cls-2" points="186.73 98.83 199.48 147.26 200.52 147.26 213.27 98.83 232.92 98.83 232.92 159.15 221.89 159.15 208.36 159.15 191.64 159.15 178.11 159.15 167.08 159.15 167.08 98.83 186.73 98.83"/></g><g><path class="cls-1" d="M197.93,240.85c16.2,0,24.82,8.01,24.82,24.47v11.37c0,16.46-8.62,24.47-24.82,24.47h-20.68v-60.32h20.68Z"/><polygon class="cls-1" points="209.13 169.8 225.85 230.12 214.13 230.12 185.87 230.12 174.15 230.12 190.87 169.8 209.13 169.8"/><polygon class="cls-1" points="186.73 98.83 199.48 147.26 200.52 147.26 213.27 98.83 232.92 98.83 232.92 159.15 221.89 159.15 208.36 159.15 191.64 159.15 178.11 159.15 167.08 159.15 167.08 98.83 186.73 98.83"/></g></svg>