<?xml version="1.0" encoding="UTF-8"?><svg id="Layer_1" xmlns="http://www.w3.org/2000/svg" viewBox="0 0 400 400"><defs><style>.cls-1{fill:none;stroke:#000;stroke-miterlimit:10;stroke-width:1.25px;}</style></defs><g><polygon class="cls-1" points="257.16 161.14 257.16 171.48 238.89 171.48 238.89 221.46 227.51 221.46 227.51 171.48 209.24 171.48 209.24 161.14 257.16 161.14"/><rect class="cls-1" x="227.51" y="90.09" width="11.38" height="60.32"/><polygon class="cls-1" points="219.93 19.11 232.68 67.54 233.72 67.54 246.47 19.11 266.12 19.11 266.12 79.43 255.09 79.43 241.56 79.43 224.84 79.43 211.31 79.43 200.28 79.43 200.28 19.11 219.93 19.11"/></g><path class="cls-1" d="M227.51,221.46l-76.57,159.99m106.22-220.31l-85.54,159.99m37.62-159.99l-58.31,159.99m76.57-170.71l-79.68,159.99m91.05-159.99l-39.35,159.99m39.35-220.31l-56.07,159.99m17.46-170.64l-59.51,159.99M200.28,19.11l-59.51,159.99M266.12,19.11l-59.51,159.99"/><g><path class="cls-1" d="M171.62,321.12c16.2,0,24.82,8.01,24.82,24.47v11.37c0,16.46-8.62,24.47-24.82,24.47h-20.68v-60.32h20.68Z"/><polygon class="cls-1" points="182.82 250.08 199.54 310.4 187.82 310.4 159.55 310.4 147.84 310.4 164.55 250.08 182.82 250.08"/><polygon class="cls-1" points="160.42 179.1 173.17 227.53 174.2 227.53 186.96 179.1 206.61 179.1 206.61 239.42 195.58 239.42 182.05 239.42 165.33 239.42 151.8 239.42 140.77 239.42 140.77 179.1 160.42 179.1"/></g></svg>